<svg xmlns="http://www.w3.org/2000/svg" viewBox="0 0 1024 948" fill="currentColor"><path fill-rule="evenodd" d="M0.0 474.0L0.0 0.0L512.0 0.0L1024.0 0.0L1024.0 474.0L1024.0 948.0L512.0 948.0L0.0 948.0L0.0 474.0ZM563.5 929.4C588.8 926.2 600.5 923.9 628.0 916.7C637.6 914.1 653.5 908.8 666.0 904.0C669.0 902.8 673.1 901.3 675.0 900.5C704.8 889.2 757.8 857.9 782.0 837.4C783.4 836.2 787.9 832.4 792.0 829.0C813.2 811.5 836.3 787.6 856.1 762.8C869.6 745.9 870.5 744.7 882.4 726.5C890.6 713.9 895.3 706.3 903.2 692.0C909.7 680.4 909.6 680.5 912.5 680.7C914.0 680.8 916.9 681.8 919.0 682.9L922.9 684.9L923.2 681.7C923.5 678.7 923.7 678.5 927.3 678.6C930.6 678.7 930.8 678.6 929.3 677.4C928.3 676.7 927.2 676.0 926.7 676.0C926.3 676.0 924.1 675.1 921.7 674.1C912.3 669.9 880.8 658.1 873.0 655.9C871.1 655.3 865.5 653.5 860.5 651.8C855.5 650.1 848.8 648.0 845.5 647.0C821.6 640.0 820.1 639.6 798.5 634.0C785.3 630.5 774.0 628.0 746.0 622.1C718.7 616.4 670.1 609.3 642.0 606.9C634.6 606.3 628.2 605.6 627.9 605.4C627.5 605.2 612.6 604.1 594.9 603.0C551.3 600.2 503.6 599.4 473.0 600.9C436.6 602.7 398.8 604.9 396.0 605.5C394.6 605.8 386.7 606.7 378.5 607.5C331.3 612.0 284.0 620.2 233.0 632.7C222.8 635.2 212.7 637.8 210.5 638.5C208.3 639.1 202.9 640.7 198.5 642.0C194.1 643.2 185.6 645.8 179.5 647.8C173.4 649.7 167.2 651.6 165.5 652.1C163.8 652.5 156.7 655.0 149.5 657.5C142.3 660.1 134.7 662.7 132.5 663.5C130.3 664.2 124.7 666.4 120.0 668.4C115.4 670.4 111.3 672.0 110.9 672.0C110.5 672.0 106.4 673.7 101.8 675.8C97.3 678.0 92.6 680.0 91.6 680.4C90.6 680.7 89.9 681.3 90.2 681.5C90.5 681.8 92.9 681.1 95.5 680.0C99.7 678.2 100.5 678.1 101.8 679.3C102.9 680.4 102.9 681.2 102.1 682.8C100.4 686.0 100.7 686.1 106.2 683.5C109.1 682.1 112.1 681.0 112.7 681.0C113.4 681.0 115.7 684.5 117.9 688.8C120.1 693.0 124.1 700.3 126.9 704.9C129.7 709.5 132.0 713.5 132.0 713.7C132.0 714.5 152.6 744.8 157.4 751.0C185.4 787.1 222.6 823.7 254.9 846.8C261.6 851.5 280.2 864.0 280.6 864.0C280.7 864.0 282.8 865.3 285.2 866.9C287.6 868.5 291.2 870.7 293.2 871.9C295.3 873.0 298.7 875.0 300.8 876.2C306.6 879.6 330.1 891.4 334.5 893.2C336.7 894.1 341.9 896.3 346.0 898.2C350.1 900.1 354.9 902.2 356.5 902.8C387.0 914.1 407.6 920.0 433.7 925.1C475.4 933.2 521.7 934.7 563.5 929.4ZM368.0 861.5C366.6 860.7 364.9 860.1 364.2 860.0C360.7 859.9 322.8 840.5 308.0 831.2C285.1 816.8 255.5 793.7 247.0 783.5C245.6 781.9 247.9 783.3 252.0 786.8C262.9 795.9 285.2 812.7 295.0 819.1C305.9 826.3 314.9 832.0 315.4 832.0C315.6 832.0 318.6 833.6 322.1 835.5C335.5 843.1 360.9 855.4 365.5 856.6C368.2 857.3 371.4 860.4 370.9 861.9C370.6 862.5 369.5 862.3 368.0 861.5ZM654.0 862.2C654.0 860.8 658.4 857.3 661.0 856.5C668.9 854.2 707.2 834.3 721.0 825.3C734.7 816.4 742.4 810.8 758.1 798.3C776.2 783.9 781.3 780.9 769.8 791.5C755.1 804.9 733.2 821.4 713.0 834.0C704.7 839.2 676.4 854.0 668.5 857.2C658.1 861.5 654.0 862.9 654.0 862.2ZM987.9 699.2C987.7 696.1 987.6 696.0 987.3 698.3C986.8 701.4 984.5 702.9 982.7 701.1C982.1 700.5 981.1 700.0 980.5 700.0C978.4 700.1 983.5 703.0 985.7 703.0C987.7 703.0 988.0 702.5 987.9 699.2ZM980.3 681.8C980.6 677.8 981.5 664.8 982.4 653.0C988.1 575.8 991.8 537.8 996.5 507.5C997.4 502.0 998.8 493.0 999.6 487.5C1000.4 482.0 1002.7 468.9 1004.5 458.5C1010.2 427.2 1010.3 426.2 1009.7 424.7C1009.4 423.9 1007.2 422.7 1004.8 422.2C1002.4 421.7 995.3 419.9 989.0 418.2C967.2 412.4 942.5 406.2 928.5 403.0C920.8 401.3 910.9 399.0 906.5 398.0C902.1 396.9 895.1 395.4 891.0 394.5C886.9 393.7 879.2 392.1 874.0 390.9C868.8 389.8 861.6 388.4 858.1 387.9C854.6 387.4 851.4 386.8 851.0 386.5C850.6 386.3 844.7 385.1 837.9 384.0C831.1 382.9 819.2 380.9 811.5 379.5C803.8 378.1 794.4 376.5 790.5 375.9C786.6 375.3 780.8 374.4 777.5 373.9C760.5 371.3 714.9 365.5 692.0 363.0C638.5 357.4 539.2 353.1 493.0 354.4C481.7 354.7 462.4 355.2 450.0 355.5C403.9 356.7 334.6 362.2 292.0 367.9C287.9 368.5 281.0 369.4 276.8 370.0C262.5 371.9 254.5 373.0 248.5 373.9C245.2 374.4 237.8 375.6 232.0 376.4C226.2 377.3 219.2 378.5 216.5 379.0C213.8 379.5 205.9 380.9 199.0 382.1C174.7 386.3 139.2 393.5 105.0 401.0C86.4 405.1 43.7 415.7 28.5 420.0C26.9 420.5 22.8 421.6 19.5 422.5C16.2 423.4 13.2 424.5 12.7 424.9C12.3 425.3 12.4 428.1 13.0 431.1C13.5 434.0 15.3 445.3 17.0 456.0C18.7 466.7 20.9 481.1 22.0 488.0C23.1 494.9 24.9 506.4 26.0 513.5C27.1 520.6 28.9 531.9 30.0 538.5C31.9 550.2 34.0 563.4 37.9 588.2C39.0 595.0 40.8 606.8 42.0 614.5C43.1 622.2 45.4 637.0 47.1 647.5C49.7 664.6 51.2 674.0 52.6 683.8C53.2 687.7 53.3 687.7 61.2 684.1C64.6 682.6 69.5 680.4 72.0 679.3C74.5 678.1 79.9 675.8 84.0 674.0C88.1 672.2 92.8 670.2 94.5 669.4C100.8 666.6 138.1 652.7 151.0 648.4C173.4 640.9 198.1 633.6 220.0 628.0C221.9 627.5 225.3 626.6 227.5 626.0C239.6 622.8 270.8 616.2 296.5 611.5C330.0 605.4 368.0 600.8 415.5 597.0C470.8 592.7 558.7 592.7 612.0 597.1C671.5 601.9 718.8 608.6 769.0 619.1C825.2 630.9 905.3 656.2 947.8 675.6C950.7 676.9 953.3 678.0 953.5 678.0C954.0 678.0 965.0 682.9 972.5 686.5C975.2 687.8 978.0 688.9 978.6 688.9C979.3 689.0 979.9 686.2 980.3 681.8ZM989.3 680.0C989.6 674.9 989.5 672.7 989.0 674.5C988.2 677.5 987.7 689.7 988.4 688.9C988.6 688.7 989.0 684.7 989.3 680.0ZM966.5 649.0C961.3 646.6 952.5 643.2 927.0 633.7C920.5 631.2 919.0 629.7 919.0 625.4C919.0 622.8 919.8 621.5 922.5 619.4C927.2 615.9 927.2 614.7 922.8 583.2C922.2 578.7 921.2 574.6 920.6 574.1C920.0 573.6 916.1 572.2 912.0 571.1C907.9 570.0 901.9 568.3 898.7 567.4C891.9 565.4 891.9 565.4 889.6 573.5C883.4 595.4 883.1 598.1 886.7 603.9C890.6 610.2 891.6 615.2 889.4 617.5C888.4 618.4 886.8 619.0 885.6 618.7C881.7 617.9 867.5 614.0 858.0 611.1C852.8 609.5 841.3 606.6 832.5 604.5C823.7 602.5 813.1 600.0 809.0 599.0C804.9 598.0 799.8 596.9 797.8 596.6C790.8 595.4 789.9 588.9 795.9 584.1C798.1 582.3 800.3 579.5 800.9 577.7C801.8 574.8 803.6 482.3 803.4 451.0C803.3 436.9 802.0 432.6 797.0 429.7C793.7 427.7 792.4 424.4 793.4 420.5C794.3 417.0 796.7 416.1 802.5 417.1C805.2 417.6 811.5 418.6 816.5 419.4C851.3 425.2 855.5 426.2 857.1 429.1C858.7 432.3 857.2 436.8 853.9 438.5C848.3 441.5 848.0 442.6 847.0 470.1C846.5 484.1 845.8 513.2 845.4 534.8C845.0 559.5 844.4 573.7 843.8 572.8C843.2 572.0 843.1 572.7 843.4 575.0C843.7 576.9 844.4 581.2 844.9 584.6C845.4 588.0 846.3 591.7 846.9 592.8C847.6 594.0 847.7 595.0 847.3 595.1C846.9 595.1 847.5 595.5 848.8 596.1C850.3 596.6 851.8 596.6 853.0 596.0C855.3 594.8 858.6 589.4 859.5 585.5C859.9 583.9 861.0 579.6 862.0 576.0C866.1 561.9 867.8 555.4 868.4 553.0C869.0 550.0 874.5 530.1 875.2 528.0C875.7 526.7 877.3 520.1 880.0 509.0C880.9 505.3 884.6 491.3 888.6 476.5C890.0 471.6 891.6 465.5 892.3 463.0C893.5 458.2 893.6 449.8 892.5 441.4C891.3 432.4 891.5 432.4 933.5 442.5C948.7 446.2 948.0 445.7 948.0 454.3C948.0 461.6 950.5 481.3 954.1 501.5C955.1 507.6 956.0 514.1 956.0 516.2C956.0 518.2 956.7 523.4 957.6 527.7C958.4 532.0 959.5 539.1 960.0 543.5C960.4 547.9 961.5 556.5 962.3 562.5C966.2 590.0 967.4 599.0 968.1 606.0C970.0 625.0 972.3 633.7 976.9 638.9C979.2 641.5 979.7 646.9 978.0 650.1C976.6 652.6 973.7 652.4 966.5 649.0ZM69.6 649.4C66.9 646.7 67.6 640.4 71.1 636.1C76.1 629.8 76.6 623.7 74.6 594.5C73.6 580.7 72.4 562.3 71.9 553.5C71.4 544.7 70.6 530.8 70.0 522.5C69.5 514.2 68.6 498.2 68.0 486.8C66.6 457.7 65.4 453.3 58.3 451.0C52.8 449.2 52.0 448.2 52.0 443.4C52.0 437.7 55.0 435.4 61.3 436.4C63.7 436.8 64.9 436.7 64.2 436.2C62.8 435.3 68.1 433.4 81.5 430.2C85.9 429.1 92.7 427.4 96.5 426.5C100.3 425.5 105.3 424.4 107.5 423.9C109.7 423.5 113.5 422.6 116.0 422.1C133.7 417.9 151.9 417.8 164.7 421.6C183.0 427.1 200.1 446.3 206.9 469.0C211.4 483.8 212.4 492.4 212.2 513.5C212.1 535.4 210.4 547.8 206.0 559.0C205.1 561.5 203.2 566.2 202.0 569.5C194.0 590.0 176.5 609.0 155.8 619.3C146.0 624.2 137.5 628.0 136.4 628.0C135.2 628.0 90.7 644.1 82.3 647.6C73.0 651.4 71.8 651.6 69.6 649.4ZM975.8 644.9C976.0 644.0 974.7 641.2 973.1 638.8C971.4 636.3 969.6 632.3 969.1 629.9C967.2 621.6 965.0 608.5 964.0 599.0C963.5 593.8 962.5 586.6 961.9 583.0C961.3 579.4 960.5 573.1 960.0 569.0C959.6 564.9 958.5 556.3 957.6 550.0C955.8 537.4 953.3 519.8 950.0 496.5C948.9 488.2 947.2 477.2 946.4 472.0C945.6 466.8 944.8 459.5 944.6 455.7C944.5 452.0 944.1 448.8 943.9 448.7C943.5 448.3 932.2 445.5 916.0 441.8C911.3 440.7 905.9 439.4 903.9 438.9C895.9 436.9 894.3 438.1 896.8 444.3C898.8 449.5 898.1 456.0 893.5 472.5C892.6 475.8 891.0 481.8 889.9 485.8C888.9 489.7 887.1 496.5 885.9 500.8C884.8 505.0 883.1 511.0 882.3 514.0C880.6 520.0 877.4 532.5 876.1 538.0C875.3 541.3 870.4 559.6 867.4 570.5C866.6 573.2 865.3 578.4 864.4 581.9C862.4 590.5 859.8 595.1 855.4 598.7C850.5 602.6 851.3 604.4 858.7 606.5C861.9 607.3 869.2 609.5 874.8 611.2C884.3 614.0 885.3 614.1 886.8 612.6C888.3 611.2 888.2 610.9 886.2 608.8C883.4 605.7 881.0 599.8 881.0 595.9C881.0 592.4 883.3 581.6 886.0 572.5C887.0 569.2 888.0 565.3 888.4 563.8C889.2 560.5 890.9 560.3 898.9 562.6C902.0 563.5 907.6 565.2 911.5 566.2C925.9 570.3 925.1 569.2 926.9 585.0C927.5 590.8 928.5 598.5 929.0 602.2C930.8 614.2 930.4 616.5 926.4 621.0C924.4 623.2 923.0 625.6 923.3 626.3C923.5 627.0 932.0 630.6 942.1 634.4C952.2 638.2 963.2 642.6 966.5 644.1C973.1 647.1 975.3 647.3 975.8 644.9ZM84.7 641.5C95.7 637.1 100.8 635.2 127.0 626.1C145.1 619.7 152.0 616.6 161.5 610.5C185.7 594.8 199.6 573.1 206.6 540.0C208.0 533.4 208.4 527.0 208.3 511.0C208.3 492.3 208.1 489.5 205.6 479.2C202.7 466.7 197.0 453.6 191.6 446.4C189.6 443.9 188.3 441.3 188.7 440.7C189.0 440.2 188.9 440.0 188.3 440.3C187.7 440.7 186.2 439.8 184.9 438.4C178.8 431.8 167.2 425.6 156.8 423.5C141.3 420.2 125.4 422.4 81.5 434.0C77.7 435.0 70.3 436.9 65.3 438.1C53.1 441.2 52.1 443.6 61.0 447.8C69.1 451.6 70.6 457.2 72.0 489.0C72.4 499.7 73.5 519.5 74.4 533.0C75.3 546.5 76.5 564.2 77.0 572.5C77.5 580.8 78.5 594.8 79.1 603.7C80.4 621.9 79.5 629.7 75.4 635.3C71.8 640.2 70.7 642.7 71.3 644.4C72.2 646.6 72.2 646.6 84.7 641.5ZM121.5 603.0C121.0 602.3 120.3 594.2 119.9 585.1C119.5 576.0 118.5 556.8 117.6 542.5C116.8 528.2 115.4 503.4 114.5 487.5C113.7 471.6 112.7 456.4 112.4 453.8C111.8 447.8 113.7 446.4 123.2 445.4C143.0 443.4 155.2 457.1 161.3 488.5C164.5 504.6 164.4 540.8 161.2 555.5C157.8 571.2 151.4 587.0 148.9 585.4C148.4 585.1 148.3 585.6 148.6 586.4C149.5 588.6 138.8 598.6 132.4 601.5C126.3 604.3 124.0 604.6 124.0 602.8C124.0 601.8 123.7 601.9 123.1 602.9C122.4 603.9 122.1 604.0 121.5 603.0ZM848.6 601.5C849.0 600.7 848.4 598.8 847.4 597.3C841.3 588.8 841.6 590.1 841.8 568.0C841.9 556.7 842.5 524.3 843.1 496.0C844.1 448.4 844.9 436.6 846.9 439.9C847.3 440.6 848.3 440.1 849.4 438.8C851.2 436.7 851.2 436.7 848.9 437.3C846.7 437.8 846.7 437.7 848.4 436.7C854.2 433.0 854.6 432.4 852.6 430.1C851.5 428.8 849.5 428.0 847.6 428.0C846.0 428.0 840.1 427.1 834.5 426.1C829.0 425.0 820.5 423.4 815.5 422.4C801.9 419.8 797.4 419.5 796.7 421.3C796.4 422.1 797.2 423.8 798.5 425.0C799.8 426.2 800.6 427.8 800.4 428.4C800.1 429.1 800.6 430.3 801.5 431.0C803.0 432.3 803.6 431.2 802.2 429.4C801.8 428.9 802.3 429.3 803.2 430.3C807.1 434.4 807.2 438.3 806.5 503.0C806.2 537.4 805.5 569.1 805.0 573.5C804.1 581.2 803.9 581.7 799.9 585.2C797.6 587.3 796.0 589.6 796.3 590.3C796.6 591.0 799.4 592.2 802.6 592.9C813.3 595.2 834.4 600.2 839.0 601.6C845.1 603.3 847.9 603.3 848.6 601.5ZM131.8 597.6C150.5 588.0 160.0 563.4 160.0 524.3C160.0 488.3 154.1 465.9 141.9 455.6C136.5 451.0 132.3 449.7 125.5 450.3C115.7 451.2 115.7 451.3 116.4 458.9C117.4 469.3 118.9 493.6 120.0 516.0C120.6 527.3 121.7 546.6 122.5 559.0C123.3 571.4 124.0 585.1 124.0 589.5C124.0 594.4 124.5 598.1 125.2 598.8C126.7 600.3 126.3 600.4 131.8 597.6ZM276.5 587.3C264.7 585.7 253.5 580.2 245.1 571.7C238.0 564.5 236.2 562.0 231.3 552.5C223.8 537.8 220.4 523.4 219.4 501.8C218.6 482.8 219.4 476.0 225.1 453.5C226.4 448.7 233.1 435.3 237.3 429.0C253.2 405.6 281.1 393.9 308.2 399.1C320.1 401.4 331.6 408.9 339.6 419.6C341.2 421.7 343.0 424.1 343.7 424.7C347.4 428.7 354.8 448.8 356.8 460.5C359.9 477.7 360.4 486.9 359.2 501.5C356.7 531.4 347.2 554.3 330.7 569.7C317.4 582.1 294.2 589.7 276.5 587.3ZM702.0 582.4C697.3 581.7 689.9 580.6 685.5 580.1C681.1 579.5 673.9 578.6 669.5 578.0C665.1 577.4 659.3 576.5 656.5 576.2C652.6 575.6 651.3 575.0 650.1 572.9C648.2 569.5 649.3 565.4 652.7 563.8C654.1 563.1 656.3 561.2 657.4 559.7C659.5 556.9 659.5 556.1 659.8 484.2C660.0 434.8 659.8 410.3 659.0 407.8C658.3 405.4 656.3 402.8 653.0 400.0C648.9 396.6 648.0 395.2 648.0 392.6C648.0 386.4 649.4 386.0 668.0 387.1C677.1 387.7 689.7 388.8 696.0 389.7C702.3 390.5 710.6 391.6 714.5 392.0C738.9 394.9 760.5 407.2 772.8 425.2C774.8 428.1 775.8 430.5 775.4 431.7C774.9 433.1 775.0 433.2 775.8 432.1C776.6 431.0 777.0 431.2 778.1 433.1C782.2 440.5 784.0 445.4 783.4 447.8C783.0 449.7 783.1 450.1 783.8 449.1C784.7 447.8 786.3 451.6 788.4 460.0C792.2 474.9 793.3 508.0 790.6 522.2C784.3 555.1 769.6 574.2 744.6 581.9C736.4 584.4 716.0 584.7 702.0 582.4ZM996.7 578.8C996.5 577.5 996.3 578.3 996.3 580.5C996.2 582.7 996.4 583.7 996.7 582.8C996.9 581.8 996.9 580.0 996.7 578.8ZM296.8 581.4C312.3 578.2 323.8 571.4 334.3 559.0C336.4 556.5 338.2 554.7 338.4 555.0C338.8 555.8 342.0 552.9 342.0 551.8C342.0 551.2 341.2 551.4 340.3 552.1C338.8 553.3 338.8 553.1 340.5 550.5C358.9 521.8 361.1 469.8 345.4 435.5C336.0 414.9 316.1 401.0 296.3 401.0C267.2 401.0 241.8 419.9 230.2 450.0C224.3 465.5 223.5 471.0 223.5 495.0C223.6 516.3 223.7 518.0 226.3 527.7C230.1 541.8 233.1 548.9 238.5 556.9C252.2 577.6 273.0 586.3 296.8 581.4ZM744.8 577.2C748.2 576.1 750.8 575.5 750.5 576.0C750.2 576.4 750.9 576.6 752.1 576.3C753.4 575.9 753.8 575.5 753.0 575.0C752.3 574.6 753.5 573.3 756.2 571.7C758.6 570.3 761.7 568.0 763.2 566.6C764.8 564.9 766.4 564.2 767.4 564.6C768.3 564.9 769.0 564.7 769.0 564.0C769.0 563.4 768.5 563.2 767.9 563.6C767.3 564.0 768.5 562.0 770.6 559.1C773.3 555.5 774.7 554.4 775.3 555.3C775.9 556.1 776.0 555.9 775.6 554.6C775.2 553.6 775.8 551.4 776.9 549.6C779.9 544.8 783.7 534.5 786.2 524.5C788.2 516.5 788.4 513.1 788.4 494.0C788.3 474.2 788.1 471.7 785.7 462.5C781.5 446.2 775.8 433.2 769.4 425.7C768.1 424.1 767.3 422.3 767.7 421.7C768.0 421.0 767.9 420.8 767.5 421.3C767.0 421.7 764.8 420.3 762.6 418.1C744.5 400.8 726.7 395.2 675.5 391.0C655.5 389.4 652.0 389.6 652.0 392.0C652.0 393.3 653.3 394.8 655.4 396.1C657.6 397.4 659.8 400.0 661.4 403.3L664.0 408.4L664.0 481.8C664.0 563.4 664.3 559.9 657.3 564.3C654.1 566.5 652.2 569.5 653.4 570.8C653.8 571.1 657.1 571.7 660.8 572.1C671.6 573.3 697.8 576.9 707.0 578.5C718.7 580.4 736.6 579.8 744.8 577.2ZM429.5 571.3C403.5 568.2 385.2 553.6 373.3 526.5C371.7 522.6 369.7 517.0 369.1 514.0C368.4 511.0 367.4 506.5 366.8 504.0C366.2 501.5 365.5 493.6 365.3 486.5C364.9 475.1 365.3 468.1 367.6 452.5C368.4 447.3 374.5 430.5 377.3 426.0C378.6 424.1 380.2 421.1 381.0 419.5C381.8 417.9 386.5 412.4 391.5 407.5C403.4 395.7 413.5 390.4 426.7 389.0C440.9 387.5 450.0 387.8 456.6 390.0C459.8 391.1 465.0 392.0 468.1 392.0C476.6 392.0 477.5 393.5 478.5 409.0C479.0 415.9 479.4 426.2 479.6 432.0C479.9 444.5 479.1 446.0 472.3 446.0L468.0 446.0L463.2 435.8C451.5 410.8 433.3 407.0 421.5 427.2C415.2 437.9 412.9 448.7 412.3 470.3C411.4 503.0 416.3 523.9 427.8 536.2C433.9 542.7 436.6 544.0 444.4 544.0C450.0 544.0 451.5 543.6 455.4 541.0C463.4 535.6 468.6 527.8 472.6 515.4C475.5 506.2 477.2 504.0 481.4 504.0C486.0 504.1 488.4 506.3 488.3 510.6C487.9 523.1 484.6 550.3 482.9 555.1C481.0 560.1 463.1 568.1 448.0 570.6C439.8 571.9 435.9 572.1 429.5 571.3ZM579.9 568.6C579.7 568.3 560.8 567.9 538.0 567.6C492.0 567.0 494.0 567.3 494.0 560.4C494.0 557.8 494.8 556.5 497.6 554.4C504.3 549.2 504.0 552.9 504.0 480.9C504.0 434.1 503.7 414.6 502.8 411.8C501.6 407.9 499.5 405.1 494.8 401.5C491.4 398.9 490.5 394.8 492.8 392.1C494.5 389.9 494.9 389.9 529.5 390.0C578.3 390.2 591.1 390.7 592.9 392.5C594.6 394.1 596.3 416.0 595.8 428.9C595.5 436.0 595.4 436.5 592.9 437.4C588.8 438.8 585.2 437.4 583.6 433.7C582.9 432.0 580.5 428.2 578.3 425.5C573.3 419.2 565.3 416.0 554.8 416.0L548.0 416.0L548.0 440.0L548.0 464.0L552.5 464.0C559.8 464.0 565.5 459.8 570.2 451.1C571.6 448.6 572.5 448.0 575.3 448.0C581.8 448.0 582.0 448.8 582.0 475.7C582.0 502.3 581.8 503.0 575.3 503.0C572.1 503.0 570.1 501.2 568.2 496.8C567.6 495.3 565.2 492.7 562.8 491.0C559.2 488.4 557.8 488.0 553.5 488.2L548.5 488.5L548.2 514.4C548.1 531.0 548.3 540.7 549.0 541.4C549.6 542.0 554.1 542.3 559.7 542.1C575.5 541.7 583.0 536.6 590.6 521.3C592.8 516.9 593.7 516.0 596.6 515.4C599.0 515.0 600.8 515.3 602.6 516.5C605.1 518.1 605.2 518.3 604.6 526.3C603.5 539.9 599.8 566.4 598.7 567.8C597.8 568.9 581.0 569.7 579.9 568.6ZM451.1 565.4C456.5 564.4 462.6 562.4 468.0 559.7C472.7 557.4 477.1 555.6 477.8 555.7C478.5 555.7 478.9 555.5 478.6 555.2C478.3 554.9 478.5 554.1 479.1 553.4C480.5 551.7 483.7 528.4 484.2 517.0L484.5 508.5L481.6 508.5C479.2 508.5 478.6 509.1 477.3 512.5C473.0 524.4 471.4 528.0 468.5 532.5C462.4 541.7 455.3 546.6 446.3 547.7C440.5 548.3 432.9 546.4 435.1 544.8C436.1 544.1 435.8 544.1 434.3 544.5C432.5 545.0 430.9 544.0 426.6 540.0C418.6 532.4 414.9 524.4 410.7 505.5C407.5 490.7 407.5 456.8 410.8 443.1C413.2 433.0 414.9 428.9 415.0 432.5L415.1 434.5L416.0 432.5C417.2 429.8 417.2 428.8 416.0 429.5C414.4 430.5 416.0 427.0 419.7 421.4C424.4 414.2 429.2 411.1 434.9 411.8C437.6 412.1 439.0 411.9 438.7 411.3C438.3 410.7 436.8 410.4 435.3 410.7L432.5 411.0L435.0 409.9C436.4 409.3 439.3 409.1 441.5 409.4C451.5 410.7 460.5 419.2 466.4 433.0C470.2 441.7 471.2 442.7 474.6 441.2C477.2 440.0 477.2 439.9 476.6 431.2C475.2 412.4 473.8 398.4 473.1 397.0C472.5 396.0 470.6 395.5 466.9 395.4C463.9 395.4 459.5 394.5 457.0 393.4C453.3 391.8 450.1 391.5 438.5 391.5C425.0 391.6 424.2 391.7 416.5 394.8C412.1 396.6 406.3 399.6 403.5 401.5C400.8 403.3 398.2 404.6 397.6 404.3C397.1 404.0 397.0 404.1 397.3 404.7C397.6 405.2 395.9 407.7 393.4 410.1C381.4 421.8 373.6 438.7 369.9 460.5C365.7 486.0 370.5 516.2 381.5 534.2C383.5 537.4 384.8 540.5 384.5 541.0C384.1 541.6 384.3 541.9 384.8 541.8C385.3 541.6 387.7 543.6 390.0 546.3C404.6 562.8 427.2 569.9 451.1 565.4ZM465.9 563.4C467.1 562.2 465.1 562.4 462.5 563.6L459.5 565.0L462.5 564.4C464.1 564.1 465.7 563.6 465.9 563.4ZM596.0 562.8C596.9 560.5 598.4 550.1 600.1 533.6C600.6 528.7 601.2 523.9 601.5 523.0C601.8 522.1 601.2 520.6 600.0 519.5C597.4 517.1 595.6 518.6 592.2 526.0C590.7 529.0 587.1 534.0 584.0 537.2C577.2 544.2 573.6 545.3 558.1 545.3C548.1 545.4 546.6 545.2 545.4 543.5C543.2 540.5 543.4 484.5 545.5 483.6C546.4 483.3 550.4 483.3 554.5 483.7C561.0 484.2 562.5 484.7 565.8 487.5C567.9 489.3 570.5 492.4 571.5 494.4C573.1 497.3 574.0 498.0 576.0 497.8L578.5 497.5L578.5 475.0L578.5 452.5L575.9 452.2C573.8 452.0 573.0 452.5 572.1 454.8C569.9 460.1 564.4 465.3 561.8 464.5C560.1 464.0 559.9 464.1 560.9 464.8C562.7 466.1 555.5 467.3 549.0 466.8L544.5 466.5L544.2 440.1C544.0 420.1 544.3 413.4 545.2 412.2C547.1 409.9 565.6 411.2 571.3 414.1C576.6 416.8 581.0 420.8 580.4 422.5C580.1 423.2 580.3 424.1 580.9 424.5C581.6 424.9 581.7 424.4 581.4 423.3C581.0 422.1 581.3 422.3 582.5 423.9C583.5 425.2 584.3 427.7 584.3 429.4C584.3 431.1 584.5 431.7 584.7 430.7C585.2 428.9 585.3 428.9 586.6 430.9C588.1 433.1 591.4 433.7 592.4 432.1C593.6 430.2 591.2 396.8 589.8 395.4C588.4 394.1 515.4 391.5 502.6 392.4C494.1 393.0 493.1 395.6 499.6 399.8C507.1 404.7 506.9 402.8 507.7 476.1C508.4 550.1 508.4 550.0 501.3 556.5C498.9 558.7 497.9 560.3 498.3 561.4C498.9 562.8 502.3 563.0 528.2 563.1C552.8 563.2 589.1 564.2 593.8 564.8C594.5 564.9 595.5 564.0 596.0 562.8ZM281.1 560.4C269.8 550.6 264.1 525.7 264.0 484.9C264.0 460.5 264.9 452.5 269.3 438.0C270.2 435.0 270.4 434.8 271.0 436.5C271.6 438.2 272.0 438.0 273.4 434.6C275.5 429.6 275.4 429.0 272.9 432.0L270.9 434.5L272.3 431.5C276.8 422.4 286.4 417.9 294.7 421.1C296.6 421.8 297.1 422.3 296.1 422.9C295.1 423.5 295.2 423.9 296.5 424.3C297.5 424.7 297.9 424.6 297.4 423.9C297.0 423.2 297.5 423.2 299.0 424.0C300.2 424.7 300.9 425.8 300.6 426.6C300.3 427.3 300.6 427.9 301.2 427.7C304.1 427.1 310.5 443.3 312.0 455.0C312.5 458.6 313.4 464.4 313.9 468.0C317.0 486.6 316.3 513.3 312.3 535.0C308.8 554.5 301.6 564.0 290.4 564.0C286.0 564.0 284.8 563.5 281.1 560.4ZM843.7 553.2C843.5 551.2 843.3 552.9 843.3 557.0C843.3 561.1 843.5 562.8 843.7 560.8C843.9 558.7 843.9 555.3 843.7 553.2ZM299.0 557.5C304.9 551.8 308.3 541.3 311.1 519.2C313.4 501.7 310.8 463.4 306.2 445.6C304.6 439.4 298.9 429.1 296.0 427.0C291.7 423.9 288.9 423.7 284.0 426.2C277.9 429.3 274.5 434.7 271.5 446.0C265.3 469.0 266.6 518.5 274.1 541.8C275.2 545.3 275.8 549.1 275.5 550.3C275.3 551.5 275.3 551.9 275.6 551.2C276.0 550.4 277.6 551.5 280.3 554.6C282.5 557.1 285.3 559.6 286.4 560.1C290.0 561.6 296.0 560.4 299.0 557.5ZM712.0 560.3C710.1 560.1 707.5 559.7 706.2 559.5L704.0 559.0L704.0 486.6C704.0 427.3 704.2 414.1 705.3 413.7C710.2 411.8 725.2 418.1 730.6 424.3C744.4 440.3 751.2 477.6 746.5 511.0C742.9 536.1 739.8 545.3 732.1 553.3C726.4 559.4 720.8 561.3 712.0 560.3ZM725.0 554.5C741.7 545.9 749.3 491.7 739.6 451.5C735.8 436.1 726.2 423.4 715.5 419.9C711.9 418.7 709.3 418.3 708.6 418.9C707.8 419.6 707.5 439.7 707.5 488.2L707.5 556.5L711.0 557.0C715.0 557.7 721.0 556.6 725.0 554.5ZM999.7 552.8C999.5 551.5 999.3 552.3 999.3 554.5C999.2 556.7 999.4 557.7 999.7 556.8C999.9 555.8 999.9 554.0 999.7 552.8ZM915.0 549.0C907.1 546.4 898.1 544.0 896.6 544.0C893.1 544.0 893.3 541.9 898.0 524.5C899.0 520.6 900.9 513.7 902.1 509.0C903.3 504.3 905.1 497.4 906.1 493.5C907.1 489.6 908.5 484.5 909.2 482.0C909.9 479.3 910.5 478.2 910.7 479.3C911.0 480.2 911.5 480.8 911.9 480.6C912.3 480.3 913.4 485.4 914.4 491.8C915.3 498.2 916.5 506.0 917.0 509.0C917.5 512.0 918.4 518.5 919.0 523.5C919.6 528.5 920.6 535.5 921.1 539.2C922.1 546.3 922.2 551.3 921.3 549.2C921.1 548.6 920.4 548.0 919.9 548.0C919.3 548.0 919.2 548.5 919.5 549.0C920.2 550.1 918.6 550.1 915.0 549.0ZM917.4 543.0C917.1 537.8 915.0 520.2 914.0 514.0C913.4 510.4 912.7 505.1 912.3 502.2C911.3 493.4 909.2 494.5 907.1 504.9C906.4 508.4 905.5 512.0 905.0 512.9C904.5 513.8 903.4 517.6 902.6 521.5C901.8 525.4 900.4 530.9 899.6 533.9C897.8 540.1 898.4 541.4 903.1 542.4C904.8 542.7 905.9 543.4 905.5 543.9C905.2 544.5 906.9 545.1 909.2 545.3C916.7 546.0 917.5 545.8 917.4 543.0ZM348.5 437.4C347.7 435.8 347.0 435.1 347.0 435.8C347.0 437.5 349.0 441.3 349.6 440.7C349.8 440.5 349.4 439.0 348.5 437.4ZM994.0 409.0C993.2 408.5 991.7 408.0 990.7 408.0C989.8 408.0 984.6 406.3 979.3 404.3C972.2 401.6 969.3 399.9 968.2 398.0C967.1 396.1 965.9 395.4 963.6 395.4C961.9 395.3 958.7 394.8 956.4 394.2C951.9 392.9 951.2 391.5 949.0 379.0C945.3 358.0 935.5 325.3 925.5 300.6C913.5 270.8 890.8 229.6 872.9 205.0C865.9 195.4 852.8 178.0 851.7 176.8C851.0 176.1 845.7 170.1 839.9 163.5C808.1 127.5 772.2 98.6 725.7 71.6C697.0 54.9 644.8 34.9 613.0 28.5C608.9 27.6 602.8 26.3 599.5 25.5C596.2 24.8 587.2 23.2 579.5 22.1C495.1 9.6 406.6 21.5 330.5 55.5C317.9 61.1 291.9 74.6 286.8 78.1C285.4 79.2 283.9 80.0 283.6 80.0C283.2 80.0 275.9 84.8 267.2 90.6C216.3 125.0 174.3 167.4 140.3 218.5C108.2 266.9 84.0 322.8 74.0 372.0C69.4 394.9 70.1 393.1 64.6 394.7C61.9 395.5 58.6 396.0 57.3 395.7C55.6 395.4 55.0 395.7 55.0 396.9C55.0 400.2 52.2 402.3 43.9 405.2C34.9 408.3 36.5 408.2 50.0 405.0C54.7 403.8 62.3 402.1 67.0 401.0C71.7 400.0 78.0 398.5 81.0 397.7C95.5 394.0 130.3 386.3 152.5 382.0C158.6 380.8 167.4 379.0 172.2 377.9C177.0 376.9 182.0 376.0 183.1 376.0C184.3 376.0 189.8 375.1 195.4 374.0C207.4 371.7 225.1 368.8 245.0 366.0C253.0 364.8 263.8 363.2 269.0 362.5C274.2 361.7 282.9 360.6 288.4 360.0C293.8 359.5 298.5 358.8 298.9 358.6C299.3 358.3 306.8 357.4 315.6 356.6C324.3 355.8 334.6 354.6 338.5 354.1C342.4 353.6 350.2 352.9 356.0 352.5C361.8 352.2 373.9 351.2 383.0 350.5C429.9 346.4 521.6 345.0 586.0 347.4C609.9 348.3 633.8 349.5 639.0 350.0C644.2 350.6 654.8 351.4 662.5 352.0C676.6 353.0 692.5 354.6 718.5 357.6C726.2 358.5 735.9 359.6 740.0 360.1C747.5 361.0 758.5 362.6 777.5 365.5C783.0 366.4 790.6 367.5 794.5 368.0C798.4 368.6 805.1 369.7 809.5 370.5C813.9 371.3 824.0 373.1 832.0 374.5C858.6 379.1 884.5 384.3 912.0 390.5C931.5 394.8 936.3 395.9 943.0 397.6C946.6 398.5 952.0 399.8 955.0 400.5C958.0 401.2 965.9 403.1 972.5 404.8C990.9 409.5 996.5 410.6 994.0 409.0ZM835.2 368.9C831.7 367.8 831.5 367.3 833.2 363.5C834.0 361.6 834.6 361.3 835.2 362.2C835.8 363.1 835.9 362.8 835.5 361.4C834.3 356.9 842.9 350.0 851.8 348.5C856.8 347.7 857.2 348.8 852.9 351.9C848.4 355.2 850.2 355.8 855.1 352.6C857.3 351.1 859.4 350.1 859.7 350.4C860.4 351.0 855.4 359.7 852.6 362.8C848.3 367.6 840.5 370.3 835.2 368.9ZM175.5 367.6C172.2 366.2 164.1 357.4 163.9 355.0C163.8 354.2 163.8 352.9 163.9 352.1C164.1 351.4 163.7 351.1 163.2 351.4C162.7 351.7 161.8 350.3 161.2 348.4C160.4 345.7 160.4 345.0 161.3 345.3C162.0 345.5 162.6 346.6 162.8 347.8C163.1 350.0 166.7 353.0 170.5 354.4C171.9 354.9 171.5 354.1 169.0 351.4L165.5 347.7L169.8 348.4C178.6 349.7 185.6 355.4 189.0 363.8C190.1 366.7 190.1 367.3 188.9 368.0C186.9 369.3 178.9 369.0 175.5 367.6ZM196.4 367.2C194.6 366.1 196.1 360.0 199.5 354.7C203.2 349.0 204.4 348.7 203.7 354.0C203.1 358.7 204.4 358.4 206.5 353.4C208.4 348.8 209.6 349.7 210.4 356.4C211.4 363.7 210.2 365.6 204.4 366.5C201.8 366.8 199.2 367.3 198.6 367.6C198.0 367.8 197.0 367.6 196.4 367.2ZM818.5 366.5C818.0 366.3 816.3 365.9 814.8 365.6C812.1 365.0 812.0 364.8 812.0 358.2C812.0 348.0 814.4 345.8 816.5 354.3C817.0 356.5 818.1 358.6 818.9 358.8C820.0 359.2 820.1 358.7 819.6 356.9C817.9 351.6 818.0 349.7 819.7 353.6C820.7 355.9 822.0 358.4 822.6 359.1C823.3 359.9 824.0 361.4 824.3 362.5C824.7 364.2 824.8 364.1 824.9 362.0C825.0 360.0 825.2 359.8 826.0 361.0C826.5 361.8 827.0 363.5 827.0 364.8C827.0 366.7 826.5 367.0 823.2 366.9C821.2 366.9 819.0 366.7 818.5 366.5ZM224.3 361.3C223.6 359.8 223.4 337.7 223.9 317.2C224.0 311.2 226.8 296.8 227.9 296.0C228.3 295.7 229.8 293.0 231.3 290.0C235.1 281.8 239.1 278.5 250.8 274.1C260.5 270.4 260.8 270.3 259.3 272.6C258.5 273.9 257.5 275.0 257.1 275.0C255.9 275.0 248.0 282.1 248.0 283.1C248.0 283.7 249.0 283.8 250.2 283.4L252.5 282.8L250.1 285.4C245.5 290.4 251.5 288.2 259.0 282.1L263.5 278.5L261.1 282.5C253.7 294.7 247.1 299.9 237.4 300.9C231.1 301.6 230.8 301.5 229.9 299.3C228.7 296.0 227.7 296.4 228.2 300.0C228.5 301.6 228.4 303.0 228.1 303.0C227.3 303.0 226.5 318.0 226.5 333.5C226.5 340.6 226.7 350.1 227.0 354.4C227.4 360.2 227.2 362.4 226.3 362.7C225.6 363.0 224.7 362.3 224.3 361.3ZM231.4 360.9C229.2 357.3 234.3 337.7 240.0 328.0C244.0 321.2 256.0 307.4 255.6 310.0C255.3 312.5 253.9 314.1 252.8 313.4C252.1 313.0 252.0 313.2 252.4 313.9C252.8 314.5 252.1 316.7 250.8 318.8C245.2 327.9 240.8 341.5 239.4 353.8C238.8 359.3 238.4 360.3 236.3 361.1C233.2 362.3 232.3 362.2 231.4 360.9ZM796.3 361.3C796.7 361.0 796.6 360.2 796.1 359.6C795.2 358.5 796.4 311.3 797.4 310.3C798.1 309.5 799.3 324.9 799.4 338.0C799.5 352.0 798.4 362.0 796.8 362.0C796.2 362.0 796.0 361.7 796.3 361.3ZM784.5 360.0C783.2 359.4 783.0 359.1 784.0 359.1C785.1 359.0 785.2 358.8 784.3 358.2C783.6 357.8 782.6 354.1 782.0 350.1C781.4 346.0 780.7 341.5 780.4 340.1C778.9 333.7 772.0 318.2 768.8 314.3C768.2 313.5 768.4 313.2 769.7 313.4C772.2 313.8 780.1 323.7 783.9 331.3C787.6 338.6 790.9 350.7 791.0 356.8C791.0 360.5 790.7 361.0 788.8 360.9C787.5 360.9 785.6 360.5 784.5 360.0ZM823.4 357.8C823.0 357.1 821.9 355.4 821.1 354.0C820.1 352.5 820.0 351.9 820.8 352.4C822.1 353.1 825.4 359.0 824.6 359.0C824.3 359.0 823.8 358.4 823.4 357.8ZM830.0 357.7C830.0 356.9 828.9 355.3 827.5 354.0C823.2 349.9 820.7 341.6 821.3 333.1C821.9 325.4 824.0 320.6 824.0 327.0C824.0 329.3 824.9 331.5 826.6 333.5L829.1 336.5L828.5 333.5C828.2 331.9 827.6 329.6 827.3 328.5C826.8 326.7 827.0 326.8 829.4 329.0C834.6 333.7 836.4 337.8 836.4 344.7C836.4 349.6 835.9 351.7 834.2 354.0C833.0 355.6 832.0 357.4 832.0 358.0C832.0 358.5 831.5 359.0 831.0 359.0C830.5 359.0 830.0 358.4 830.0 357.7ZM187.9 354.3C184.3 348.5 184.5 339.6 188.3 334.7C191.3 330.7 193.5 330.7 192.6 334.6C191.9 337.2 193.1 337.8 194.8 335.8C195.3 335.1 196.3 332.8 197.1 330.8C197.8 328.7 198.8 327.0 199.3 327.0C199.8 327.0 199.9 327.7 199.6 328.6C199.2 329.5 199.5 330.9 200.1 331.6C201.6 333.4 200.4 344.2 198.4 348.2C197.6 349.8 195.4 352.7 193.6 354.6L190.3 358.1L187.9 354.3ZM687.5 348.0C683.1 347.7 680.3 347.3 681.2 347.2C682.1 347.1 683.3 346.4 683.7 345.6C684.1 344.8 687.1 343.7 690.2 343.0C693.4 342.4 696.0 341.3 696.0 340.7C696.0 340.0 697.7 338.6 699.8 337.6C701.8 336.6 704.2 335.4 705.0 335.0C705.9 334.6 708.0 333.9 709.8 333.5C711.6 333.2 713.5 332.0 714.0 330.9C714.8 329.4 714.7 329.2 713.5 329.6C712.7 330.0 712.0 329.7 712.0 329.0C712.0 328.4 712.5 328.2 713.0 328.5C713.5 328.8 714.0 328.4 714.0 327.6C714.0 326.7 714.8 326.0 715.9 326.0C718.5 326.0 721.3 321.7 719.7 320.1C719.1 319.5 718.5 318.2 718.5 317.2C718.5 316.3 717.3 315.0 715.9 314.3C714.5 313.6 712.6 312.2 711.6 311.1C710.0 309.3 710.1 308.8 714.9 299.9C720.4 289.7 721.9 288.4 717.0 298.0C715.4 301.3 714.0 304.6 714.0 305.3C714.0 306.1 716.1 307.5 718.8 308.5C723.5 310.3 728.9 314.6 729.0 316.6C729.0 317.2 729.9 318.5 730.9 319.4C732.4 320.7 732.7 322.2 732.5 325.8C732.1 332.6 730.7 335.4 725.8 338.7C723.3 340.4 721.4 342.5 721.2 343.8C721.0 345.1 720.2 346.0 719.0 346.0C718.0 346.0 715.9 346.7 714.4 347.5C711.4 349.1 702.9 349.2 687.5 348.0ZM840.7 347.3C840.4 346.8 840.5 345.8 841.1 345.0C841.6 344.2 842.0 342.3 842.0 340.9C842.0 336.5 844.6 331.6 849.2 327.4C857.5 319.8 866.0 317.3 859.0 324.5C854.7 329.0 857.2 329.2 861.8 324.8L865.2 321.5L864.5 325.5C863.0 334.2 856.5 342.0 848.7 344.6C845.8 345.5 843.0 346.7 842.3 347.2C841.7 347.7 840.9 347.7 840.7 347.3ZM174.6 345.0C165.8 342.2 160.6 336.6 157.5 326.5C155.9 321.0 156.4 320.5 160.0 324.1C163.8 327.9 166.2 327.8 162.5 324.0C158.8 320.2 159.9 319.2 165.1 321.6C169.9 323.7 175.2 328.6 177.4 332.8C179.5 336.8 180.7 344.6 179.2 343.6C178.5 343.2 178.0 343.4 178.0 343.9C178.0 344.5 178.7 345.0 179.5 345.0C180.3 345.0 181.0 345.4 181.0 346.0C181.0 346.6 180.9 347.0 180.8 346.9C180.6 346.9 177.8 346.0 174.6 345.0ZM403.3 343.3C404.8 343.1 407.0 343.1 408.3 343.3C409.5 343.5 408.2 343.7 405.5 343.7C402.8 343.7 401.7 343.5 403.3 343.3ZM600.0 342.4C589.8 341.8 566.0 340.9 547.0 340.5C510.8 339.7 501.1 339.0 526.9 339.0L542.0 339.0L543.3 336.2C543.9 334.7 544.9 333.2 545.3 332.9C545.8 332.5 545.7 332.0 545.1 331.6C543.6 330.7 547.0 327.0 549.3 327.0C550.9 327.0 551.1 326.5 550.6 323.6C550.0 320.7 550.3 319.9 552.2 318.6C554.9 316.7 557.0 318.1 555.0 320.5C554.2 321.4 554.2 322.0 554.8 322.0C555.4 322.0 556.6 321.0 557.4 319.8C558.3 318.6 559.1 317.8 559.3 318.1C559.5 318.3 560.3 319.5 561.2 320.8L562.7 323.0L562.6 320.0C562.5 318.3 561.9 317.0 561.2 317.0C559.3 317.0 559.8 314.6 562.1 313.1C563.9 312.1 564.4 312.1 565.1 313.1C565.7 314.1 566.2 314.1 567.5 313.0C569.0 311.8 569.4 311.8 570.6 313.4C571.8 315.2 572.1 315.2 575.4 313.6C577.9 312.4 578.7 311.5 578.3 310.1C577.7 307.8 579.8 306.3 580.6 308.4C581.3 310.2 584.2 310.5 586.8 309.1C587.7 308.6 589.9 308.0 591.5 307.9C593.1 307.7 594.8 307.1 595.1 306.7C595.7 305.8 596.9 306.8 599.4 310.4C602.2 314.5 608.2 307.6 606.7 301.9C606.3 300.5 606.7 300.0 608.1 300.0C609.2 300.0 611.2 298.8 612.5 297.4C615.0 294.7 615.0 294.7 616.7 296.8C618.5 298.8 618.5 298.8 622.7 295.5C625.0 293.7 626.6 291.9 626.2 291.5C625.8 291.1 626.4 291.0 627.5 291.2C630.3 291.7 630.1 295.4 627.2 295.8C626.0 296.0 625.0 296.8 625.0 297.6C625.0 299.7 628.8 299.3 629.5 297.1C630.1 295.1 636.2 293.5 636.8 295.1C637.0 295.6 637.8 296.0 638.6 296.0C639.4 296.0 640.0 296.4 640.0 297.0C640.0 298.4 637.3 298.2 636.6 296.8C636.3 296.1 636.3 296.5 636.6 297.8C637.1 299.8 636.8 300.0 633.7 300.0C631.4 300.0 630.0 300.6 629.6 301.6C629.1 303.0 629.5 303.2 631.9 302.7C635.7 301.9 636.6 303.2 634.4 306.5C632.2 309.9 633.4 310.9 636.8 308.3C639.6 306.1 639.7 306.0 638.5 302.0C638.1 300.6 638.1 299.8 638.5 300.2C638.9 300.6 641.0 299.6 643.1 297.9C647.1 294.7 649.0 294.8 649.0 298.1C649.0 300.6 650.6 300.5 652.7 298.0C655.1 295.3 656.2 295.5 655.4 298.5C655.0 300.3 655.2 301.0 656.2 301.0C658.1 301.0 660.0 299.0 660.0 297.0C660.0 294.5 664.8 290.8 667.1 291.5C668.2 291.9 669.8 291.6 670.6 290.9C671.4 290.3 672.4 290.1 672.8 290.5C673.2 290.9 672.9 291.5 672.2 291.7C671.6 292.0 671.0 292.5 671.0 292.9C671.0 294.2 676.3 292.9 678.3 291.2C679.2 290.4 680.3 290.0 680.6 290.3C681.0 290.6 682.6 290.2 684.2 289.4C685.8 288.6 688.0 288.2 689.0 288.5C690.2 288.9 691.0 288.7 691.0 287.9C691.0 286.7 693.9 284.1 695.2 284.0C695.6 284.0 695.4 285.1 694.8 286.5C693.5 289.3 694.4 291.0 696.2 289.2C698.8 286.6 700.2 288.0 698.0 291.1C696.8 292.7 696.1 294.4 696.4 294.8C696.8 295.1 697.4 294.9 697.8 294.3C698.2 293.7 699.6 292.9 701.0 292.5C702.4 292.1 705.2 289.5 707.5 286.4C710.3 282.7 712.0 281.1 713.2 281.4C714.2 281.6 715.0 281.3 715.0 280.6C715.0 279.9 715.6 278.6 716.2 277.7C718.2 275.0 718.4 286.4 716.5 290.3C715.7 292.0 715.0 293.8 715.0 294.5C715.0 295.2 714.1 296.5 713.0 297.5C711.9 298.5 711.0 299.9 711.0 300.7C711.0 302.9 708.3 305.3 707.4 303.9C707.1 303.3 707.4 302.4 708.1 301.9C708.8 301.5 709.2 300.9 708.9 300.5C708.6 300.2 707.5 300.9 706.5 302.0C704.8 303.9 704.8 304.1 706.5 306.6C708.2 309.2 708.2 309.3 705.9 311.1C703.9 312.6 703.4 312.7 703.2 311.5C702.8 309.8 701.4 309.5 700.5 311.1C700.0 311.8 699.0 311.6 697.4 310.6C695.8 309.5 695.2 309.4 695.5 310.3C696.2 312.0 687.9 318.8 682.8 320.6C680.5 321.4 676.5 323.3 674.1 324.7C669.9 327.1 666.8 328.1 658.5 329.7C656.9 330.0 655.0 330.7 654.4 331.1C653.8 331.6 652.5 331.7 651.6 331.4C650.5 331.0 649.1 331.5 647.9 332.9C646.8 334.0 644.9 335.0 643.7 335.0C642.4 335.0 640.9 335.5 640.3 336.1C639.7 336.7 637.3 337.4 635.0 337.5C632.8 337.7 629.8 338.6 628.5 339.4C627.2 340.3 624.7 341.0 623.0 341.0C618.7 341.0 619.3 342.8 623.8 343.3C632.2 344.2 618.2 343.7 600.0 342.4ZM416.8 342.3C419.1 342.1 422.7 342.1 424.8 342.3C426.8 342.5 424.9 342.7 420.5 342.7C416.1 342.7 414.4 342.5 416.8 342.3ZM442.3 341.3C443.8 341.1 446.0 341.1 447.3 341.3C448.5 341.5 447.2 341.7 444.5 341.7C441.8 341.7 440.7 341.5 442.3 341.3ZM463.7 340.3C465.5 340.1 468.7 340.1 470.7 340.3C472.8 340.5 471.4 340.7 467.5 340.7C463.6 340.7 462.0 340.5 463.7 340.3ZM329.6 338.4C329.1 337.2 329.4 336.9 330.6 337.4C331.4 337.7 332.4 338.0 332.6 338.0C332.9 338.0 332.8 338.4 332.5 339.0C331.6 340.5 330.3 340.2 329.6 338.4ZM495.3 339.3C497.9 339.1 502.0 339.1 504.3 339.3C506.6 339.5 504.4 339.6 499.5 339.6C494.6 339.6 492.7 339.5 495.3 339.3ZM535.5 336.3C536.6 336.0 537.9 335.4 538.5 334.9C539.8 333.6 540.7 333.8 541.4 335.5C541.8 336.7 541.1 337.0 537.7 336.9C535.4 336.8 534.4 336.6 535.5 336.3ZM513.0 335.1C513.0 334.6 513.7 333.9 514.6 333.6C517.0 332.7 517.4 332.9 516.0 334.5C514.6 336.2 513.0 336.5 513.0 335.1ZM473.6 333.4C473.2 332.5 473.2 331.5 473.4 331.3C474.2 330.5 476.0 332.1 476.0 333.6C476.0 335.5 474.4 335.4 473.6 333.4ZM528.3 331.9C529.8 327.9 534.2 323.1 534.8 324.8C535.0 325.5 534.6 326.8 533.9 327.6C532.9 328.9 532.9 329.3 533.9 330.0C535.7 331.0 534.4 333.0 532.0 333.0C531.0 333.0 529.8 333.4 529.5 334.0C528.1 336.3 527.3 334.8 528.3 331.9ZM552.3 333.0C553.8 333.0 554.1 332.7 553.3 331.9C552.7 331.3 552.4 330.1 552.7 329.4C553.0 328.6 552.7 328.0 552.1 328.0C551.5 328.0 551.0 328.4 551.0 329.0C551.0 329.6 550.1 330.0 549.0 330.0C546.7 330.0 546.6 330.3 548.2 333.0C548.9 334.1 549.6 334.6 549.8 334.0C550.0 333.5 551.1 333.0 552.3 333.0ZM179.6 329.7C176.3 320.9 178.0 313.3 184.8 307.2C189.0 303.6 190.6 303.1 189.0 305.9C188.5 307.0 188.0 308.6 188.0 309.6C188.0 311.0 188.2 311.0 189.6 309.9C190.5 309.2 191.7 307.4 192.3 306.0C193.4 303.8 193.5 304.2 193.8 310.1C194.1 317.4 191.1 326.8 188.9 325.4C188.2 325.0 188.0 325.1 188.4 325.8C188.9 326.7 182.9 334.0 181.6 334.0C181.4 334.0 180.5 332.1 179.6 329.7ZM839.4 332.4C839.7 331.5 839.6 331.2 838.9 331.6C837.4 332.5 833.2 328.3 830.7 323.5C829.4 320.9 828.5 316.9 828.3 312.0L827.8 304.5L831.4 308.5C835.2 312.8 836.0 312.6 833.3 307.9C832.4 306.4 831.9 304.8 832.3 304.4C833.2 303.5 836.1 306.0 835.4 307.1C835.1 307.6 835.6 307.7 836.4 307.4C837.5 307.0 838.9 308.3 841.0 311.6C844.5 317.2 845.1 324.9 842.4 330.6C840.8 333.9 838.2 335.5 839.4 332.4ZM192.7 330.8C192.2 329.3 193.6 327.0 195.2 327.0C196.4 327.0 196.2 328.4 194.7 330.4C193.5 332.0 193.2 332.1 192.7 330.8ZM431.9 329.4C430.2 327.4 432.4 325.8 435.7 326.7C438.4 327.3 438.8 325.5 436.3 324.1C435.2 323.5 434.6 321.9 434.6 319.6C434.6 317.5 434.2 316.1 433.6 316.3C433.0 316.5 431.5 316.3 430.2 315.9C427.7 314.9 427.3 316.1 429.5 318.0C431.5 319.7 431.4 322.0 429.2 323.6C426.6 325.6 426.0 325.3 426.6 322.0C427.3 318.7 427.1 318.6 419.8 319.0C417.3 319.1 415.1 318.5 413.4 317.1C411.9 315.9 410.0 315.0 409.1 315.0C408.0 315.0 408.1 315.4 409.8 316.6C411.0 317.4 412.0 318.8 412.0 319.6C412.0 321.2 410.4 321.5 409.5 320.0C409.2 319.4 407.8 319.0 406.5 319.0C405.2 319.0 403.7 318.4 403.3 317.6C402.2 315.7 392.8 314.4 393.5 316.3C393.9 317.3 393.0 317.6 389.8 317.6C386.6 317.5 385.4 317.1 385.2 315.8C384.8 313.5 383.7 313.5 381.5 316.0C379.6 318.1 377.0 318.7 377.0 317.1C377.0 316.6 377.5 316.0 378.1 315.8C379.8 315.2 377.1 311.3 374.5 310.4C369.1 308.5 368.5 308.5 366.9 310.0C365.8 311.0 365.6 312.0 366.2 313.2C367.2 315.2 366.0 315.6 364.3 313.9C362.4 312.0 358.5 313.3 358.2 315.8C358.0 317.1 357.2 318.4 356.4 318.7C354.2 319.5 349.8 315.1 350.6 312.8C350.9 311.6 350.6 311.0 349.7 311.0C348.5 311.0 346.4 305.3 347.2 304.4C348.2 303.5 352.9 305.5 353.3 307.1C353.9 309.4 356.3 309.6 358.1 307.4C359.2 306.1 359.1 305.7 357.7 304.8C355.0 303.4 351.9 299.7 352.3 298.5C352.5 298.0 354.4 297.6 356.4 297.6C359.4 297.7 359.8 297.5 358.8 296.3C358.2 295.5 356.8 295.1 355.7 295.4C354.5 295.7 352.9 295.0 351.4 293.5C349.6 291.7 349.0 291.5 349.0 292.6C349.0 295.1 345.5 293.8 345.2 291.2C344.9 289.3 344.6 289.1 343.4 290.1C342.1 291.1 342.2 291.6 344.1 293.6C345.5 295.1 346.0 296.5 345.6 297.7C344.9 299.3 344.7 299.3 343.1 297.2C342.0 295.7 340.8 295.1 339.7 295.6C338.7 295.9 337.3 295.7 336.4 295.0C335.2 293.9 334.4 294.0 332.2 295.6C330.7 296.7 328.3 298.2 326.8 298.9C325.2 299.7 324.0 301.0 324.0 301.8C324.0 303.1 323.7 303.1 322.2 301.7C321.2 300.7 319.9 300.0 319.3 300.0C318.7 300.0 318.0 299.4 317.7 298.8C317.4 297.8 316.8 297.8 315.1 298.8C312.7 300.2 310.0 300.4 310.0 299.1C310.0 298.6 310.6 298.0 311.4 297.7C313.2 297.0 312.3 293.0 310.3 293.0C309.6 293.0 307.9 293.7 306.6 294.6C303.1 296.8 302.2 294.5 305.4 291.3C307.4 289.3 307.8 288.4 306.9 287.4C306.0 286.3 306.1 286.0 307.3 286.0C308.1 286.0 309.0 285.3 309.4 284.5C309.7 283.7 310.8 283.0 311.8 283.0C313.7 283.0 316.0 281.2 316.0 279.8C316.0 279.3 315.1 279.4 314.1 280.0C310.8 281.7 309.8 281.2 311.6 278.6C312.4 277.2 314.1 276.0 315.3 275.8C316.6 275.6 317.6 274.5 318.1 272.8C319.1 269.1 318.0 268.7 314.0 271.3C312.1 272.5 309.3 274.3 307.7 275.3C306.1 276.3 304.0 278.0 303.1 279.0C301.3 281.2 294.0 282.9 294.0 281.1C294.0 280.5 295.1 279.3 296.5 278.4C297.9 277.5 299.0 276.1 299.0 275.4C299.0 274.6 300.6 272.4 302.5 270.6C304.4 268.7 306.0 266.7 306.0 266.1C306.0 265.5 306.4 265.0 307.0 265.0C307.6 265.0 308.0 265.6 308.0 266.4C308.0 268.7 309.9 269.3 311.5 267.6C313.5 265.7 313.4 265.3 310.9 264.7C309.3 264.3 309.0 263.7 309.5 262.0C310.1 260.0 309.9 260.0 307.1 262.6C305.4 264.1 304.0 265.9 304.0 266.7C304.0 267.4 303.1 268.0 302.0 268.0C300.8 268.0 299.0 268.9 297.8 269.9C296.7 271.0 295.1 271.6 294.4 271.3C293.4 271.0 293.2 271.3 293.5 272.3C293.9 273.1 293.4 274.0 292.6 274.3C291.7 274.7 291.4 275.7 291.7 276.8C292.0 278.3 291.7 278.8 290.5 278.7C288.6 278.5 286.3 282.0 284.2 288.1C282.7 292.5 282.7 292.8 284.2 292.6C284.9 292.6 285.6 292.9 285.7 293.5C285.9 294.1 285.1 294.5 283.9 294.5C282.8 294.5 281.5 295.2 281.0 296.0C279.2 298.9 280.0 295.0 282.0 291.0C283.1 288.8 284.0 286.5 284.0 285.8C284.0 282.5 303.4 254.5 305.0 255.5C305.4 255.8 307.4 255.3 309.3 254.5C314.1 252.5 325.4 250.1 332.0 249.6C335.0 249.4 339.9 248.4 342.7 247.4C347.8 245.6 350.9 246.1 348.0 248.1C346.8 249.0 346.9 249.1 348.5 248.5C352.7 247.2 358.7 246.8 359.4 247.9C359.8 248.5 361.9 249.0 364.2 249.0C367.7 249.0 368.1 248.8 367.0 247.5C366.3 246.6 366.0 245.7 366.4 245.3C367.3 244.3 369.9 248.2 369.3 249.7C368.8 250.9 371.5 251.6 374.4 251.1C374.8 251.0 375.9 251.5 376.7 252.1C377.8 253.1 378.4 253.0 379.8 251.7C380.7 250.7 380.9 250.0 380.3 250.0C378.7 250.0 375.8 243.8 376.8 242.8C377.4 242.2 378.4 242.5 379.3 243.4C380.1 244.3 381.5 244.8 382.2 244.5C383.0 244.2 385.2 244.6 387.1 245.4C389.1 246.2 391.7 246.6 392.8 246.3C394.0 246.0 395.7 246.3 396.5 247.0C397.3 247.6 398.3 247.9 398.9 247.6C399.4 247.3 400.9 247.4 402.2 247.9C404.4 248.8 404.4 248.9 401.5 249.1C399.9 249.2 396.9 249.2 395.0 249.0C392.0 248.8 391.7 249.0 392.9 250.4C393.7 251.3 395.6 251.9 397.4 251.9C399.1 251.8 402.3 252.5 404.5 253.3C408.0 254.7 408.5 255.2 408.4 257.9C408.2 261.3 410.2 262.6 412.4 260.4C413.6 259.3 414.4 259.2 416.0 260.0C418.5 261.3 418.6 263.3 416.1 262.5C415.0 262.2 413.7 262.6 412.9 263.6C411.6 265.2 411.8 265.3 414.8 264.7C416.6 264.3 418.0 264.5 418.0 265.0C418.0 265.6 419.1 266.0 420.5 266.0C421.9 266.0 423.0 266.3 423.0 266.8C423.0 267.2 424.2 268.8 425.6 270.3C427.0 271.9 428.0 273.4 427.6 273.7C426.8 274.5 432.0 281.0 433.5 281.0C434.2 281.0 435.0 281.7 435.4 282.5C435.7 283.4 437.2 284.0 439.3 284.0C442.5 284.0 443.0 284.5 445.9 290.0C447.7 293.2 449.5 296.2 450.0 296.5C454.5 299.3 442.1 275.4 433.2 264.2C431.4 261.9 430.2 260.0 430.7 260.0C431.9 260.0 439.3 270.4 445.1 280.3C447.9 285.1 450.4 288.9 450.6 288.7C451.4 287.9 448.4 280.7 446.3 278.4C445.0 277.0 444.0 275.7 444.0 275.4C444.0 274.2 430.7 255.5 426.9 251.3C425.3 249.6 425.1 248.7 425.9 247.2C427.2 244.8 425.6 243.0 422.3 243.0C421.0 243.0 420.0 242.6 420.0 242.1C420.0 240.8 427.1 241.5 427.9 242.9C428.9 244.4 432.4 243.8 434.7 241.8C435.7 240.9 437.8 239.8 439.4 239.4C441.9 238.8 442.7 239.1 444.4 241.3C446.5 244.0 446.6 244.0 450.3 242.3C454.0 240.6 455.3 238.0 452.5 238.0C450.7 238.0 450.6 236.8 452.2 235.2C453.1 234.3 453.1 234.0 452.2 234.0C450.4 234.0 450.7 232.3 452.6 231.6C453.5 231.3 455.9 232.0 457.9 233.2C459.9 234.5 462.0 235.4 462.6 235.2C463.3 235.1 464.0 235.6 464.4 236.5C465.2 238.7 467.0 238.3 467.0 236.0C467.0 233.5 469.5 233.4 471.2 235.9C471.9 236.9 474.0 238.5 475.9 239.5C479.4 241.2 479.4 241.2 481.4 238.8C483.2 236.7 484.1 236.4 488.2 236.8C491.5 237.1 493.0 237.7 493.0 238.6C493.0 239.4 493.8 240.0 494.8 240.0C495.8 240.0 497.9 241.3 499.5 243.0C501.1 244.7 502.0 246.0 501.7 246.0C501.3 246.0 501.4 246.9 502.0 248.0C502.6 249.1 503.7 250.0 504.5 250.0C506.8 250.0 506.3 248.3 503.8 247.5C502.5 247.2 502.0 246.6 502.7 246.4C504.2 245.7 512.0 250.6 512.0 252.3C512.1 253.8 518.8 259.0 520.7 259.0C522.9 259.0 529.5 262.9 529.5 264.2C529.5 264.9 531.3 265.8 533.5 266.4C535.7 266.9 539.3 268.8 541.4 270.6C543.6 272.5 545.9 274.0 546.6 274.0C547.2 274.0 548.3 274.7 549.0 275.5C549.7 276.3 550.6 277.0 551.1 277.0C551.5 277.0 550.8 275.8 549.5 274.4C548.1 272.9 547.0 271.3 547.0 270.8C547.0 270.3 545.5 269.3 543.8 268.5C542.0 267.8 539.4 266.0 538.0 264.5C536.6 263.0 533.0 260.1 530.0 258.0C527.0 255.9 522.0 251.9 519.0 249.0C516.0 246.2 511.2 242.4 508.3 240.5C505.5 238.7 500.7 235.0 497.8 232.3C494.8 229.7 490.2 225.9 487.4 224.0C482.9 220.8 468.2 212.0 467.4 212.0C467.2 212.0 464.7 210.9 461.8 209.6C456.6 207.3 439.5 201.7 429.5 199.0C426.8 198.3 418.6 197.4 411.5 197.0L398.5 196.3L409.1 196.2C415.0 196.1 422.1 196.5 425.0 197.0C428.8 197.7 430.6 197.7 431.0 196.9C431.4 196.3 432.8 196.0 434.1 196.2L436.5 196.7L434.1 197.7C431.7 198.7 431.7 198.7 435.1 199.4C437.1 199.8 438.6 199.6 438.8 199.0C439.0 198.5 440.6 198.0 442.3 197.9C444.1 197.9 444.9 197.6 444.2 197.3C442.7 196.7 442.6 194.0 444.1 194.0C444.6 194.0 446.8 195.4 448.9 197.0C452.3 199.8 453.4 200.1 461.3 200.3C466.1 200.5 470.0 200.4 470.0 200.0C470.0 198.8 464.9 196.9 463.7 197.7C461.3 199.1 452.5 197.9 450.2 195.8C446.8 192.6 447.3 190.6 451.3 191.4C453.4 191.8 455.3 191.5 456.6 190.5C458.2 189.4 459.6 189.3 462.0 190.0C463.8 190.5 466.4 190.7 467.7 190.4C469.6 189.9 470.0 190.2 470.0 191.9C470.0 193.1 470.6 194.0 471.5 194.0C472.3 194.0 473.0 193.6 473.0 193.0C473.0 192.4 473.7 192.0 474.6 192.0C475.7 192.0 476.0 192.6 475.5 194.1C474.9 196.0 475.0 196.1 477.0 195.0C478.3 194.3 479.6 194.2 480.3 194.8C481.0 195.3 483.3 196.2 485.5 196.8C492.8 198.7 499.3 201.5 499.8 202.9C500.1 203.9 499.7 204.1 498.1 203.7C496.7 203.4 496.0 203.7 496.0 204.6C496.0 205.4 497.0 206.0 498.2 206.0C500.7 206.0 512.5 211.4 513.5 213.1C513.9 213.7 513.5 214.9 512.7 215.8C511.4 217.1 510.8 217.1 509.6 216.0C508.7 215.3 508.0 215.2 508.0 215.8C508.0 217.0 510.4 218.0 513.1 218.0C514.1 218.0 515.0 218.4 515.0 219.0C515.0 219.6 515.8 220.0 516.7 220.0C518.0 220.0 517.9 220.5 515.9 222.6L513.5 225.2L515.8 227.1C517.1 228.1 517.9 229.4 517.6 229.9C516.8 231.1 518.3 232.1 524.0 234.1C527.2 235.2 528.6 236.2 528.8 237.8C529.0 239.1 529.9 240.0 530.8 240.0C531.8 240.0 533.1 241.0 533.9 242.2C535.2 244.3 535.2 244.4 533.7 243.2C532.9 242.5 531.9 242.3 531.6 242.8C530.9 244.0 531.9 245.0 534.0 245.0C535.0 245.0 536.3 245.7 537.0 246.5C537.7 247.3 539.7 248.4 541.4 248.8C543.3 249.3 544.5 250.3 544.5 251.4C544.5 252.3 545.1 253.4 545.7 253.8C546.4 254.2 547.6 256.1 548.4 258.0C550.2 262.2 553.9 267.0 554.0 265.3C554.0 264.6 553.4 262.3 552.6 260.3C551.9 258.2 550.5 253.8 549.5 250.5C548.5 247.2 546.9 242.8 545.9 240.8C544.8 238.7 544.0 236.7 544.0 236.3C544.2 233.7 553.7 256.0 556.0 264.3C556.8 267.3 557.6 268.7 558.1 267.9C558.5 267.2 558.0 264.5 556.9 261.8C554.6 255.9 554.6 255.0 556.5 255.0C557.3 255.0 558.0 254.6 558.0 254.0C558.0 253.4 557.4 253.0 556.7 253.0C554.2 253.0 552.1 249.7 552.7 246.8C553.0 245.2 553.6 244.0 554.1 244.0C554.6 244.0 555.0 243.3 555.0 242.5C555.0 240.5 553.3 240.6 552.2 242.6C551.5 243.8 551.2 243.2 550.7 239.9C550.3 236.8 550.6 235.0 551.6 233.9C552.4 233.1 553.0 231.8 553.0 231.2C553.0 230.5 553.5 230.0 554.0 230.0C554.5 230.0 555.0 230.4 555.0 231.0C555.0 231.6 555.5 232.0 556.1 232.0C556.7 232.0 556.9 231.1 556.5 230.0C556.2 228.9 556.3 228.0 556.9 228.0C558.6 228.0 560.9 231.0 560.4 232.5C559.4 234.9 561.0 236.2 562.7 234.4C563.9 233.2 564.0 232.6 563.1 232.1C562.5 231.7 562.2 230.6 562.6 229.7C562.9 228.8 562.7 228.0 562.1 228.0C559.8 228.0 559.1 224.5 560.7 221.1C562.1 218.4 562.1 217.4 561.1 215.8C560.4 214.7 560.1 213.6 560.3 213.3C560.6 213.1 561.6 214.2 562.6 215.9C563.6 217.6 565.2 219.2 566.1 219.5C567.1 219.8 569.1 221.7 570.6 223.8C573.5 227.6 576.0 229.9 577.2 230.0C578.8 230.0 577.9 228.3 575.0 225.3C573.3 223.6 572.3 221.9 572.9 221.6C573.4 221.3 574.0 221.7 574.4 222.5C574.7 223.3 575.5 224.0 576.2 224.0C576.9 224.0 578.1 224.9 578.8 226.0C579.5 227.1 580.7 228.0 581.6 228.0C582.4 228.0 582.8 227.6 582.5 227.0C582.2 226.4 582.6 226.0 583.6 226.0C584.8 226.0 585.0 226.3 584.1 227.3C583.3 228.3 583.4 229.0 584.2 229.8C585.9 231.5 587.0 231.3 586.4 229.5C586.0 228.6 586.3 228.0 587.1 228.0C588.1 228.0 588.1 227.7 587.2 226.8C585.3 224.9 585.7 224.5 590.0 224.3C592.8 224.2 594.6 223.5 595.8 222.0C597.6 219.8 597.7 219.8 600.2 221.4C601.7 222.4 603.1 223.8 603.4 224.7C603.9 225.9 604.3 226.0 605.5 225.0C607.4 223.4 610.6 224.5 609.3 226.3C608.6 227.1 608.7 228.5 609.6 230.5C610.3 232.2 610.9 232.8 611.0 231.9C611.0 229.1 613.9 228.9 615.6 231.5C616.5 232.9 617.6 233.7 618.1 233.4C618.6 233.1 619.9 233.4 621.1 234.0C623.6 235.4 624.7 234.6 623.1 232.6C622.4 231.8 622.1 230.6 622.5 230.0C622.8 229.4 622.2 229.0 621.0 229.0C618.2 229.0 614.1 226.2 605.4 218.1C584.5 198.6 575.8 191.7 561.1 182.7C558.6 181.1 555.6 179.0 554.5 178.1C553.4 177.1 550.7 175.5 548.5 174.6C546.3 173.6 542.7 171.9 540.5 170.8C538.3 169.7 534.7 168.2 532.5 167.4C520.0 163.3 511.8 160.1 513.8 160.0C515.6 160.0 529.3 164.6 537.0 167.7C537.8 168.1 540.1 168.4 542.0 168.5C543.9 168.6 546.4 169.0 547.4 169.5C549.1 170.2 549.3 170.0 548.7 167.2C548.1 164.0 548.1 164.0 552.0 164.0C554.1 164.0 556.2 164.5 556.5 165.0C556.9 165.6 557.6 165.8 558.1 165.4C558.6 165.1 558.8 164.4 558.5 163.9C558.1 163.4 558.6 163.0 559.5 163.0C560.4 163.0 560.8 163.4 560.5 164.0C560.2 164.6 561.0 165.0 562.4 165.0C563.8 165.0 565.2 165.5 565.6 166.1C565.9 166.7 567.1 166.9 568.3 166.6C569.7 166.3 571.1 167.0 573.0 169.0C574.4 170.5 577.5 172.3 579.8 172.9C582.1 173.6 584.2 174.5 584.5 175.0C584.8 175.6 586.0 176.0 587.0 176.0C588.0 176.0 590.1 177.3 591.7 179.0C593.2 180.6 594.9 182.0 595.4 182.0C597.0 182.0 603.0 186.4 603.0 187.6C603.0 189.2 609.9 196.0 611.4 196.0C612.7 196.0 614.0 197.9 618.6 206.5C622.0 212.8 624.0 214.5 624.0 211.1C624.0 209.9 624.5 209.0 625.0 209.0C625.5 209.0 626.0 210.0 626.0 211.2C626.0 212.4 626.7 214.1 627.6 215.1C629.1 216.7 629.0 216.8 627.2 216.3C626.1 216.1 625.0 216.3 624.6 216.8C623.6 218.5 626.4 222.8 629.0 223.3C631.6 223.9 633.4 223.0 631.2 222.3C629.8 221.8 629.6 218.0 631.0 218.0C631.5 218.0 632.0 218.7 632.0 219.6C632.0 220.5 633.1 222.3 634.5 223.6L637.0 225.9L636.4 223.2C636.0 221.7 635.3 219.5 634.9 218.2C633.8 215.2 633.8 214.7 635.0 215.5C635.5 215.8 636.0 216.8 636.0 217.6C636.0 218.4 637.4 221.8 639.1 225.3L642.2 231.5L641.6 225.8C641.3 222.7 641.4 220.0 641.9 219.8C642.5 219.6 642.5 217.7 642.0 215.0C641.3 211.4 641.4 210.3 642.6 209.3C643.6 208.6 643.8 208.0 643.1 207.5C642.5 207.2 642.0 205.6 642.0 203.9C642.0 201.7 642.5 201.0 644.0 201.0C645.4 201.0 646.0 200.3 646.0 198.8L646.0 196.6L647.6 198.8C648.6 200.2 649.8 200.9 650.7 200.5C652.4 199.9 659.0 202.0 659.0 203.1C659.0 203.5 658.4 204.0 657.8 204.3C656.9 204.6 657.3 205.6 658.9 207.4C661.7 210.3 663.0 210.7 663.0 208.5C663.0 207.7 662.6 207.0 662.1 207.0C661.6 207.0 661.0 206.1 660.7 205.0C660.4 203.9 660.6 203.0 661.1 203.0C661.6 203.0 662.0 202.3 662.0 201.5C662.0 200.7 661.5 200.0 661.0 200.0C659.5 200.0 659.8 198.4 661.6 196.6C662.4 195.7 662.8 194.6 662.5 194.0C661.6 192.5 663.8 192.8 666.5 194.6C668.6 196.0 668.9 196.0 669.8 194.5C670.5 193.1 671.1 193.6 672.9 197.4C674.1 200.0 675.6 202.0 676.3 201.8C678.1 201.5 682.0 203.0 682.0 204.1C682.0 204.6 682.5 205.0 683.1 205.0C684.3 205.0 682.8 202.8 676.2 195.1C673.8 192.3 672.5 190.3 673.4 190.6C676.3 191.7 675.1 189.5 671.8 187.5L668.5 185.7L670.4 187.8C674.2 192.2 670.6 189.8 662.7 182.8C658.2 178.8 654.3 175.3 654.0 175.0C651.2 172.1 638.3 163.6 630.8 159.5C628.1 158.1 626.0 156.7 626.0 156.5C626.0 156.2 628.8 157.4 632.2 159.2C640.5 163.5 640.7 163.6 639.1 161.6C635.2 156.9 645.9 157.8 650.2 162.5C651.6 164.0 654.0 165.1 656.2 165.4C660.4 166.0 664.0 167.6 664.0 169.0C664.0 169.5 665.4 170.6 667.0 171.5C668.7 172.4 670.0 172.6 670.0 172.0C670.0 171.5 670.5 171.0 671.1 171.0C671.7 171.0 671.9 171.9 671.5 173.0C670.9 174.9 672.3 175.6 675.4 175.1C676.5 174.9 680.0 178.0 680.0 179.2C680.0 179.6 679.1 180.0 678.0 180.0C676.0 180.0 675.4 181.1 676.8 182.4C677.2 182.8 677.5 183.7 677.5 184.3C677.5 184.9 680.0 186.8 683.1 188.6C688.9 192.0 693.3 197.1 691.2 197.8C689.8 198.2 689.6 201.0 690.9 201.0C691.4 201.0 692.5 201.3 693.4 201.6C696.3 202.7 695.7 200.5 689.5 187.8C688.6 186.0 688.5 184.8 689.1 184.4C689.7 184.0 688.8 182.3 686.8 180.1C683.5 176.5 683.5 176.5 687.7 180.4C690.0 182.5 691.8 184.6 691.7 184.9C691.5 185.6 694.3 189.8 698.2 194.5C699.8 196.3 701.0 198.8 701.1 200.1C701.1 201.4 701.4 201.9 701.7 201.2C702.0 200.3 702.9 200.7 704.5 202.5C707.5 205.6 708.4 205.7 707.0 202.8C704.8 198.3 709.8 205.1 713.5 211.5C717.0 217.8 723.0 232.2 723.0 234.3C722.9 234.9 721.8 232.6 720.4 229.0C717.2 220.5 710.8 208.0 709.8 208.0C709.3 208.0 709.4 208.9 710.0 210.0C710.6 211.1 710.8 212.6 710.4 213.2C709.3 214.9 709.3 222.4 710.3 223.1C710.8 223.5 711.0 224.8 710.8 226.1L710.5 228.5L708.2 226.0L705.8 223.5L706.2 226.5C706.4 228.9 706.1 229.5 704.8 229.4C703.8 229.3 703.0 229.9 703.0 230.6C703.0 231.4 701.4 233.7 699.4 235.6C696.4 238.6 696.1 239.4 697.2 240.7C698.3 242.1 698.2 242.2 696.2 241.6C694.5 241.0 694.0 241.3 694.0 242.5C694.0 243.4 693.1 244.4 692.0 244.7C690.9 245.0 690.0 246.1 690.0 247.1C690.0 248.2 689.5 249.0 689.0 249.0C688.5 249.0 688.0 249.7 688.0 250.6C688.0 251.7 687.4 252.1 686.0 251.7C684.7 251.4 684.0 251.7 684.0 252.6C684.0 253.3 683.4 253.7 682.6 253.4C681.8 253.1 680.0 254.0 678.6 255.5C675.9 258.2 675.3 260.0 677.0 260.0C677.5 260.0 677.9 261.5 677.9 263.2C677.8 265.0 677.6 265.7 677.3 264.8C676.7 262.6 676.1 262.6 673.8 264.7C672.1 266.2 672.0 266.2 672.0 264.2C672.0 262.8 672.6 262.0 673.8 261.9C674.7 261.9 675.0 261.6 674.3 261.4C673.6 261.1 672.1 259.3 671.0 257.4C669.8 255.5 668.2 254.0 667.4 254.0C665.6 254.0 665.6 255.4 667.6 257.0C668.4 257.8 669.6 259.2 670.1 260.2C670.9 261.6 670.7 262.0 669.2 262.0C668.0 262.0 666.9 261.1 666.5 259.8C665.9 257.8 665.7 257.8 665.3 259.2C664.7 261.4 661.4 261.6 660.6 259.5C659.7 256.9 658.4 257.8 655.8 262.8C653.7 266.9 653.6 267.8 654.7 270.0C656.5 273.6 654.6 274.9 652.0 271.9C650.8 270.4 650.2 268.6 650.5 267.3C650.9 265.6 650.3 264.8 647.8 263.6C643.7 261.5 642.7 261.6 643.5 263.9C644.1 265.9 643.6 266.2 637.3 267.5C635.5 267.9 633.9 267.7 633.5 267.0C633.2 266.5 632.5 266.2 632.0 266.5C631.5 266.8 630.5 266.2 629.8 265.2C629.1 264.2 627.7 263.1 626.8 262.7C625.3 262.2 625.0 262.7 625.2 266.0C625.3 268.1 624.7 270.6 624.0 271.5C621.9 274.0 624.4 275.9 626.8 273.7C628.8 271.9 630.2 272.3 629.4 274.5C629.1 275.2 629.4 276.0 630.2 276.3C630.9 276.5 630.3 276.5 628.9 276.3C627.0 276.0 626.0 276.4 625.6 277.7C625.0 279.2 624.8 279.2 623.7 277.0C622.1 273.8 619.5 273.0 620.3 276.0C621.0 278.7 617.8 282.5 615.6 281.7C613.6 280.9 613.6 281.9 615.5 284.4C617.6 287.1 617.4 289.0 615.0 289.0C613.4 289.0 613.0 288.3 613.0 285.9C613.0 284.2 612.5 282.0 612.0 281.0C611.3 279.7 611.3 278.9 612.0 278.5C613.1 277.8 609.2 273.0 607.5 273.0C607.0 273.0 605.6 271.8 604.4 270.3L602.3 267.6L600.1 271.8C598.9 274.1 596.8 276.6 595.2 277.4C592.2 279.0 593.4 280.0 597.9 279.7C599.9 279.5 600.6 280.1 601.3 282.8C602.3 286.2 601.5 288.4 600.1 286.1C599.4 285.1 599.1 285.2 598.7 286.4C598.3 287.3 597.0 288.5 595.6 289.1C594.3 289.7 592.9 291.1 592.7 292.1C591.8 295.6 590.0 294.1 589.9 289.8C589.9 286.0 589.7 285.7 588.8 287.8C588.2 289.0 587.1 290.0 586.4 290.0C584.5 290.0 583.5 292.1 585.0 293.0C585.8 293.5 586.0 294.5 585.6 295.6C585.0 297.2 584.6 296.9 583.2 293.8C581.0 289.2 577.1 286.0 572.6 285.3C569.3 284.8 569.1 284.9 568.8 288.1C568.6 290.0 568.9 293.2 569.5 295.4C570.4 298.9 570.3 299.4 567.7 301.4C566.2 302.6 565.0 304.1 565.0 304.8C565.0 305.5 563.9 306.0 562.5 306.0C560.3 306.0 560.0 305.7 560.5 303.2C561.1 300.7 561.0 300.7 559.7 302.2C557.8 304.5 556.3 304.5 555.0 302.0C554.0 300.2 554.3 299.6 556.2 299.9C557.6 300.1 557.0 298.2 555.6 297.7C554.9 297.4 552.7 298.4 550.9 299.9C547.3 302.8 544.5 304.3 542.0 304.5C541.2 304.6 539.9 304.8 539.2 304.9C538.6 304.9 538.0 305.7 538.0 306.6C538.0 308.0 537.7 308.0 536.5 307.0C534.2 305.1 532.5 307.1 534.0 309.9C535.7 313.2 534.2 314.5 531.5 312.0C530.2 310.8 529.0 310.3 528.6 310.8C528.3 311.4 528.6 312.0 529.2 312.3C530.2 312.6 530.2 313.2 529.4 314.6C527.5 317.8 525.9 317.5 526.5 314.1C526.8 312.3 526.6 310.9 526.0 310.9C524.0 310.6 523.5 310.5 522.2 309.6C520.5 308.6 518.0 310.7 518.0 313.2C518.0 314.8 517.7 314.9 516.0 314.0C513.7 312.7 513.4 311.0 515.5 311.0C517.2 311.0 516.4 308.1 514.1 306.4C513.3 305.8 513.0 304.6 513.3 303.7C514.2 301.2 512.4 300.7 510.3 302.8C509.3 303.9 507.5 305.3 506.2 305.9C504.2 307.0 504.0 306.9 504.0 304.2C504.0 302.6 503.2 300.7 502.2 299.9C500.1 298.1 495.0 297.4 495.0 298.9C495.0 299.5 495.9 300.0 497.0 300.0C498.1 300.0 499.0 300.6 499.0 301.4C499.0 304.3 497.0 304.1 495.2 301.1C494.3 299.4 493.2 298.0 492.8 298.0C492.3 298.0 492.0 297.4 492.0 296.6C492.0 295.7 491.2 295.4 489.5 295.8C487.1 296.2 485.9 298.0 488.0 298.0C488.6 298.0 489.0 298.5 489.0 299.2C489.0 299.8 488.3 299.6 487.2 298.7C484.5 296.3 483.2 296.6 483.8 299.5C484.0 301.0 483.8 302.0 483.1 302.0C482.4 302.0 482.2 302.5 482.6 303.1C483.0 303.9 483.5 303.8 484.1 302.9C484.5 302.2 485.2 301.9 485.6 302.3C486.0 302.7 485.6 303.8 484.7 304.8C483.7 305.8 483.0 307.6 483.0 308.7C483.0 311.7 479.1 312.4 476.4 309.9C474.6 308.2 473.7 308.1 470.1 308.9C467.8 309.4 465.1 309.6 464.1 309.3C461.4 308.6 460.2 312.7 462.4 314.9C463.9 316.3 464.2 316.3 465.1 315.0C466.0 313.7 466.1 313.7 465.7 315.0C465.5 315.8 466.0 317.1 466.7 317.9C468.7 319.9 467.8 321.4 464.0 322.1C461.5 322.6 460.2 322.4 458.8 321.0C457.0 319.3 456.7 319.3 453.0 321.1C450.9 322.1 449.0 323.5 448.8 324.2C448.2 325.9 444.9 324.3 444.3 322.0C443.6 319.4 441.4 320.0 441.8 322.7C442.1 325.0 437.0 331.0 434.7 331.0C433.9 331.0 432.7 330.3 431.9 329.4ZM500.0 327.8C500.0 326.8 504.2 325.1 505.2 325.7C506.9 326.6 505.9 327.8 503.0 328.2C501.4 328.5 500.0 328.3 500.0 327.8ZM536.0 328.2C536.0 327.7 536.9 326.5 538.0 325.5C540.8 323.0 540.5 321.7 537.4 322.4C534.1 323.3 534.5 321.4 538.2 318.7C541.2 316.5 543.9 317.2 541.9 319.7C540.4 321.5 542.4 323.3 545.2 322.6C546.3 322.4 546.7 322.7 546.3 323.7C546.0 324.5 545.2 324.9 544.5 324.6C543.8 324.4 542.3 325.2 541.1 326.6C539.1 328.9 536.0 329.9 536.0 328.2ZM575.4 326.0C579.6 324.5 582.4 321.1 580.9 319.4C579.2 317.3 578.5 317.6 575.9 321.5C574.6 323.4 572.9 325.0 572.2 325.0C571.6 325.0 571.0 325.4 571.0 326.0C571.0 327.3 572.2 327.3 575.4 326.0ZM387.0 322.0L384.5 320.0L388.2 320.0C391.3 320.0 392.0 320.4 392.0 322.0C392.0 324.5 390.2 324.5 387.0 322.0ZM168.0 317.9C160.9 314.1 156.8 307.9 156.3 300.0L155.9 294.5L158.8 297.8C162.1 301.5 163.9 302.1 161.8 298.8C159.8 295.7 158.9 293.0 159.8 293.0C160.2 293.0 162.9 295.0 165.7 297.5C171.4 302.5 174.4 309.6 173.8 317.0L173.5 320.9L168.0 317.9ZM848.0 314.2C848.0 306.9 848.7 305.2 854.8 298.8C857.0 296.5 858.8 295.4 859.8 295.7C860.7 296.1 861.1 295.9 860.7 295.3C860.3 294.7 860.7 293.9 861.5 293.6C862.8 293.1 862.8 293.4 861.4 296.1C859.3 300.3 860.6 301.2 863.6 297.5L866.0 294.5L866.0 298.7C866.0 306.4 860.7 315.0 853.8 318.6C851.3 319.9 850.6 320.0 849.8 318.8C849.0 317.8 848.9 317.9 849.4 319.2C849.7 320.2 849.5 321.0 849.0 321.0C848.4 321.0 848.0 318.0 848.0 314.2ZM587.8 317.1C588.1 316.3 587.7 315.9 586.9 316.2C586.2 316.4 585.4 317.2 585.2 317.9C584.9 318.7 585.3 319.1 586.1 318.8C586.8 318.6 587.6 317.8 587.8 317.1ZM303.7 316.6C303.1 315.1 303.8 314.0 305.2 314.0C305.6 314.0 306.0 314.9 306.0 316.0C306.0 318.3 304.5 318.7 303.7 316.6ZM399.0 311.0C399.0 310.4 398.1 310.0 396.9 310.0C395.8 310.0 395.2 310.4 395.5 311.0C395.8 311.6 396.8 312.0 397.6 312.0C398.4 312.0 399.0 311.6 399.0 311.0ZM410.4 309.4C411.3 307.1 411.2 307.0 409.2 307.0C408.2 307.0 407.0 306.6 406.4 306.2C405.9 305.7 404.4 305.6 403.0 306.1C401.6 306.5 401.2 306.8 402.1 306.9C403.0 307.0 404.8 307.9 406.1 309.0C409.0 311.4 409.6 311.4 410.4 309.4ZM338.0 308.5C338.0 307.7 338.5 307.0 339.0 307.0C339.7 307.0 339.7 306.3 338.9 304.9C337.9 302.9 338.0 302.8 340.6 303.4C344.5 304.4 347.2 308.1 345.0 309.5C344.4 309.8 344.0 309.4 344.0 308.6C344.0 307.7 343.3 307.0 342.5 307.0C341.6 307.0 341.3 307.6 341.6 308.5C342.0 309.5 341.6 310.0 340.1 310.0C338.9 310.0 338.0 309.4 338.0 308.5ZM622.5 307.3C623.8 305.4 623.8 305.2 621.8 304.6C619.7 304.1 615.0 307.2 615.0 309.1C615.0 310.7 621.1 309.3 622.5 307.3ZM176.6 308.1C176.4 307.8 175.7 305.6 175.0 303.2C173.7 298.3 175.7 289.4 178.5 287.0C179.3 286.3 180.0 285.4 180.0 284.9C180.0 283.4 177.8 283.9 175.7 285.8C173.8 287.5 173.8 287.4 174.4 282.0C176.1 267.2 176.2 265.8 175.1 266.4C174.6 266.8 173.8 268.7 173.4 270.6L172.8 274.1L170.3 271.8C168.9 270.5 167.2 268.3 166.4 266.8C164.5 263.2 164.6 253.9 166.5 251.4C167.9 249.6 167.9 249.6 168.0 252.2C168.0 253.7 168.4 255.2 169.0 255.5C169.6 255.8 170.0 255.2 170.0 254.1C170.0 252.9 170.4 252.0 170.9 252.0C172.0 252.0 175.0 259.3 175.0 262.0C175.0 265.2 176.7 265.1 178.8 261.7C179.8 260.0 182.2 257.7 183.9 256.6C187.2 254.8 187.2 254.8 186.1 256.8C185.5 257.9 185.0 259.1 185.0 259.4C185.0 260.6 187.8 260.0 188.3 258.8C188.5 258.1 189.1 257.8 189.5 258.2C191.7 260.2 183.9 272.0 180.3 272.0C179.6 272.0 179.0 272.7 179.0 273.5C179.0 275.5 182.9 275.4 185.2 273.3C187.8 271.0 188.5 272.4 186.7 276.2C185.3 279.1 185.3 279.5 186.5 279.8C188.6 280.3 188.5 280.5 184.0 287.6C181.8 291.1 180.4 294.0 180.9 294.0C183.3 294.0 186.8 291.6 188.6 288.7C191.2 284.3 191.8 287.6 189.5 293.9C187.9 298.2 177.5 309.7 176.6 308.1ZM277.2 307.5C277.2 306.4 277.6 304.4 278.0 303.0C278.6 301.0 278.8 300.9 278.8 302.5C278.8 303.6 278.4 305.6 278.0 307.0C277.4 309.0 277.2 309.1 277.2 307.5ZM794.7 308.2C794.5 307.8 794.0 306.3 793.6 304.8C793.0 302.3 792.5 302.0 789.1 302.0C780.8 302.0 771.4 296.9 766.1 289.5C763.4 285.8 763.1 284.9 764.4 284.4C765.2 284.1 767.3 284.8 768.9 285.9C772.0 288.1 775.0 288.7 775.0 287.0C775.0 286.4 774.5 286.0 774.0 286.0C773.5 286.0 773.0 285.5 773.0 284.9C773.0 284.3 773.9 284.0 775.0 284.3C778.3 285.2 777.3 283.4 772.2 279.7C769.6 277.7 766.1 274.7 764.5 272.9C762.9 271.0 762.4 270.2 763.5 271.1C764.6 271.9 766.8 272.7 768.4 272.9C772.5 273.3 780.9 277.2 784.6 280.3C788.2 283.3 791.7 289.9 792.5 295.3C792.8 297.4 793.5 298.8 793.9 298.5C795.1 297.8 796.0 301.9 795.4 305.0C795.0 307.2 795.1 307.2 795.9 305.5C796.8 303.7 796.9 303.8 796.9 306.2C797.0 308.8 795.7 310.0 794.7 308.2ZM393.8 305.5C393.5 302.6 391.0 302.0 391.0 304.8C391.0 305.8 391.3 307.0 391.7 307.3C393.0 308.7 394.0 307.9 393.8 305.5ZM840.9 305.2C835.5 301.3 832.7 296.6 832.4 291.3L832.1 286.7L835.3 289.7C837.1 291.4 839.4 293.0 840.6 293.2C842.3 293.6 842.0 292.7 838.3 287.2C833.9 280.4 833.3 279.0 835.0 279.0C838.7 279.0 848.0 292.7 848.0 298.1C848.0 300.8 845.9 308.0 845.1 307.9C844.8 307.9 842.9 306.6 840.9 305.2ZM302.4 304.5C301.6 302.4 303.9 297.0 305.6 297.0C307.4 297.0 307.3 299.0 305.5 301.4C304.7 302.4 304.3 303.6 304.5 304.1C304.8 304.5 304.6 305.1 304.0 305.5C303.4 305.8 302.7 305.4 302.4 304.5ZM386.2 300.8C384.2 298.8 382.8 301.1 384.7 303.2C386.3 305.0 386.5 305.1 386.8 303.5C387.0 302.6 386.7 301.3 386.2 300.8ZM569.8 304.4C568.8 303.5 570.2 300.0 571.6 300.0C573.6 300.0 574.3 301.9 573.0 303.5C571.7 305.1 570.7 305.4 569.8 304.4ZM648.8 302.7C649.3 300.3 647.3 300.6 646.7 303.1C646.4 304.4 646.6 305.0 647.3 304.7C648.0 304.5 648.6 303.6 648.8 302.7ZM627.5 303.0C627.2 302.4 626.2 302.0 625.4 302.0C624.6 302.0 624.0 302.4 624.0 303.0C624.0 303.6 624.9 304.0 626.1 304.0C627.2 304.0 627.8 303.6 627.5 303.0ZM688.1 301.4L690.5 298.8L688.0 299.5C685.1 300.4 683.0 301.9 683.0 303.1C683.0 304.9 685.7 303.9 688.1 301.4ZM480.7 298.5C481.3 297.1 481.5 296.0 481.1 296.0C479.9 296.0 478.0 298.3 478.0 299.7C478.0 301.8 479.4 301.2 480.7 298.5ZM322.0 297.1C322.0 296.0 322.7 294.5 323.5 293.6C324.3 292.8 324.7 291.5 324.4 290.7C324.1 289.8 324.5 287.8 325.4 286.2C326.9 283.4 326.7 282.0 324.8 282.0C324.3 282.0 323.4 283.4 322.8 285.1C322.0 287.4 321.3 288.0 319.8 287.7C317.4 287.0 313.6 290.5 314.7 292.3C315.2 293.1 315.6 293.0 315.8 291.8C316.0 290.8 317.0 290.0 318.2 290.0C320.0 290.0 320.2 290.4 319.6 293.8C319.3 296.0 319.3 298.0 319.7 298.3C320.9 299.6 322.0 299.0 322.0 297.1ZM435.3 293.8C433.5 291.8 432.0 292.3 432.0 294.9C432.0 297.5 433.0 298.0 435.1 296.7C436.8 295.7 436.8 295.4 435.3 293.8ZM167.0 293.4C165.1 292.0 162.7 289.6 161.8 288.1C159.6 284.7 158.1 275.3 159.8 276.4C160.6 276.9 161.0 276.4 161.0 275.1C161.0 273.9 160.6 273.0 160.0 273.0C159.4 273.0 159.0 272.4 159.0 271.8C159.0 271.1 160.4 272.1 162.0 274.0L165.0 277.5L164.3 274.1C163.9 271.6 164.0 270.9 164.9 271.4C165.5 271.8 165.7 272.6 165.4 273.2C165.0 273.8 165.2 274.0 165.7 273.7C167.3 272.7 170.0 276.3 171.5 281.4C172.8 285.8 172.5 296.1 171.1 295.9C170.8 295.9 168.9 294.7 167.0 293.4ZM370.7 293.0C370.1 291.9 369.2 291.0 368.8 291.0C368.3 291.0 368.0 290.3 368.0 289.5C368.0 288.7 367.6 288.0 367.0 288.0C365.7 288.0 365.7 288.3 367.3 291.1C369.5 295.3 370.1 296.0 371.0 295.5C371.6 295.1 371.4 294.1 370.7 293.0ZM849.6 291.9C848.9 287.7 844.2 282.0 841.5 282.0C839.9 282.0 836.6 277.6 835.6 274.2L834.9 272.0L838.9 274.1C841.2 275.3 843.7 275.9 844.5 275.6C846.3 275.0 848.0 278.5 848.0 282.8C848.0 286.1 849.4 284.7 850.9 279.9C851.5 277.9 853.4 275.0 855.1 273.4L858.2 270.5L857.5 273.8C856.7 277.7 858.6 278.2 860.0 274.5C861.5 270.5 863.0 271.6 863.0 276.8C862.9 283.0 860.2 288.9 855.4 292.8C853.3 294.6 851.3 296.0 850.9 296.0C850.5 296.0 850.0 294.1 849.6 291.9ZM498.0 294.0C498.0 292.7 495.2 291.5 494.2 292.4C493.9 292.8 494.2 293.5 495.0 294.0C497.0 295.3 498.0 295.2 498.0 294.0ZM655.6 293.4C654.8 291.2 654.8 291.0 656.4 291.0C658.5 291.0 659.2 292.6 657.6 293.9C656.5 294.8 656.1 294.7 655.6 293.4ZM657.2 288.8C655.6 287.2 655.7 285.0 657.4 285.0C658.7 285.0 660.0 287.0 660.0 289.1C660.0 290.4 658.6 290.2 657.2 288.8ZM720.1 290.0C720.1 289.7 720.9 286.8 722.0 283.5C723.2 280.2 723.8 278.9 723.6 280.6C723.1 283.5 720.3 291.2 720.1 290.0ZM222.8 284.4C213.0 277.4 209.6 267.0 211.9 251.5C213.2 242.9 215.2 240.4 215.8 246.6C216.1 250.0 220.1 259.0 221.4 259.0C221.8 259.0 221.9 258.0 221.5 256.8C221.2 255.5 220.5 253.2 220.0 251.5C219.5 249.8 218.8 247.5 218.5 246.2C218.0 244.7 218.2 244.0 219.1 244.0C219.8 244.0 220.1 244.2 219.8 244.5C219.5 244.8 220.6 246.4 222.2 248.0C223.8 249.7 224.8 251.4 224.5 252.0C224.1 252.6 224.4 252.9 225.0 252.8C225.6 252.6 227.5 255.0 229.2 258.0C232.0 263.1 232.2 264.0 231.8 272.0C231.5 277.8 230.8 281.7 229.4 284.2L227.5 287.9L222.8 284.4ZM793.1 285.2C788.2 272.2 789.5 262.5 797.9 251.3C803.9 243.2 805.1 243.2 802.5 251.5C800.3 258.6 801.0 262.1 803.5 256.5C804.5 254.3 806.1 250.3 807.0 247.6C809.0 242.0 809.4 242.3 810.9 250.4C812.5 259.0 812.3 263.3 809.9 270.2C807.2 278.3 805.2 280.9 799.2 284.7L794.2 287.8L793.1 285.2ZM424.0 286.2C424.0 285.7 421.4 283.6 418.2 281.4C415.1 279.3 412.3 277.3 412.0 277.0C410.6 275.6 404.9 272.0 404.1 272.0C402.5 272.0 399.0 268.8 399.6 267.8C399.9 267.4 399.4 267.0 398.6 267.0C395.9 267.0 392.1 264.8 392.6 263.5C393.1 262.3 385.5 259.0 382.2 259.0C381.5 259.0 379.7 258.2 378.4 257.1C376.4 255.6 374.9 255.3 369.6 255.7C364.5 256.2 361.9 255.8 357.8 254.2C350.9 251.5 347.7 250.9 339.3 250.8C331.5 250.8 326.0 251.7 326.0 253.1C326.0 253.6 327.4 254.0 329.0 254.0C330.7 254.0 333.0 254.6 334.1 255.2C335.9 256.3 336.4 256.2 336.7 255.2C337.1 254.2 337.8 254.4 339.6 256.1C342.0 258.3 342.0 258.3 345.4 256.5C348.2 255.0 349.1 254.9 350.4 255.9C351.2 256.6 351.6 257.8 351.3 258.6C350.9 259.8 351.3 260.0 353.3 259.5C356.2 258.7 357.7 260.4 356.1 262.4C354.3 264.6 361.7 265.6 363.9 263.6C365.9 261.8 368.0 261.5 368.0 263.0C368.0 263.6 369.1 264.0 370.4 264.0C371.8 264.0 373.2 264.4 373.5 265.0C373.8 265.6 375.2 266.0 376.5 266.0C377.8 266.0 379.2 266.4 379.5 267.0C379.8 267.6 381.9 268.0 384.1 268.0C386.6 268.0 388.7 268.7 389.9 269.9C392.3 272.3 397.4 275.0 399.5 275.0C400.3 275.0 401.0 275.7 401.0 276.6C401.0 277.9 401.7 278.1 404.0 277.6C405.9 277.3 407.0 277.5 407.0 278.2C407.0 279.7 410.1 281.9 412.5 282.0C413.6 282.0 416.3 283.1 418.5 284.4C422.9 287.1 424.0 287.4 424.0 286.2ZM288.7 282.9C289.1 281.6 289.6 281.2 290.2 281.8C291.3 282.9 290.5 285.0 289.0 285.0C288.6 285.0 288.4 284.1 288.7 282.9ZM648.2 282.8C648.4 281.6 649.0 280.5 649.6 280.3C650.3 280.1 650.6 280.9 650.3 282.5C649.7 285.5 647.7 285.9 648.2 282.8ZM761.0 282.1C759.6 279.5 759.7 278.3 761.2 279.8C762.3 280.9 763.2 284.0 762.4 284.0C762.2 284.0 761.6 283.1 761.0 282.1ZM661.4 281.6C660.6 279.4 661.7 278.3 663.2 279.8C664.1 280.7 664.1 281.3 663.2 282.2C662.3 283.1 661.9 282.9 661.4 281.6ZM590.9 278.8C592.1 275.4 591.8 274.4 590.0 275.5C588.6 276.4 587.1 280.2 587.7 281.2C588.6 282.8 589.8 281.9 590.9 278.8ZM600.2 278.3C598.2 277.5 598.8 275.0 601.5 273.8C604.6 272.4 605.4 273.1 604.6 276.5C604.0 278.9 602.9 279.4 600.2 278.3ZM844.0 273.0C844.0 272.4 843.3 272.0 842.3 272.0C839.1 272.0 834.1 267.1 833.0 262.9C832.0 259.2 832.6 255.7 833.7 258.8C834.0 259.4 834.8 260.0 835.6 260.0C837.3 260.0 837.3 259.5 836.0 256.9C834.6 254.3 835.5 254.5 839.5 257.5C843.9 260.9 848.3 274.0 845.0 274.0C844.5 274.0 844.0 273.6 844.0 273.0ZM422.2 271.8C420.9 270.6 417.7 270.5 417.3 271.7C417.0 272.5 417.9 272.9 419.9 272.7C421.5 272.6 422.6 272.2 422.2 271.8ZM725.3 269.5C725.3 267.3 725.5 266.5 725.7 267.8C725.9 269.0 725.9 270.8 725.7 271.8C725.4 272.7 725.2 271.7 725.3 269.5ZM847.4 269.4C847.0 267.4 847.0 263.6 847.3 261.0C848.2 253.9 852.0 248.6 852.0 254.5C852.0 257.4 853.5 257.8 854.4 255.3C855.0 253.8 855.2 253.8 856.0 255.0C858.3 258.6 856.6 266.6 852.8 270.8C849.8 273.9 848.2 273.5 847.4 269.4ZM614.4 270.4C615.5 267.6 615.1 266.9 612.8 267.2C609.8 267.6 608.9 272.0 611.8 272.0C612.9 272.0 614.1 271.3 614.4 270.4ZM237.3 265.2C238.5 252.2 248.2 243.0 262.6 241.4C265.6 241.0 268.0 241.0 268.0 241.3C268.0 241.6 265.5 243.5 262.5 245.5C256.9 249.3 255.4 250.7 256.3 251.7C257.1 252.5 266.2 248.2 268.7 245.8C275.3 239.6 266.6 254.5 259.6 261.5C253.4 267.7 250.5 269.1 240.6 270.4L236.7 270.9L237.3 265.2ZM784.6 269.5C785.0 268.7 784.7 268.0 784.0 268.0C783.4 268.0 783.2 268.4 783.5 269.0C783.9 269.6 782.3 270.0 779.3 269.9C774.9 269.8 774.8 269.7 777.5 268.9C780.5 268.1 780.4 268.1 777.0 268.4C772.3 268.9 768.3 266.9 762.8 261.2C755.4 253.7 748.6 239.6 755.3 245.7C758.2 248.4 764.2 252.0 765.8 252.0C768.4 252.0 766.8 250.0 761.5 246.5C753.8 241.4 753.6 240.6 760.1 241.4C772.0 242.9 782.0 251.0 784.8 261.5C786.2 267.0 786.4 271.0 785.0 271.0C784.5 271.0 784.3 270.3 784.6 269.5ZM599.4 264.6C598.8 262.1 597.0 260.9 597.0 263.1C597.0 264.6 599.1 268.3 599.6 267.7C599.9 267.4 599.8 266.1 599.4 264.6ZM726.3 257.0C726.3 254.5 726.5 253.5 726.7 254.8C726.9 256.0 726.9 258.0 726.7 259.2C726.5 260.5 726.3 259.5 726.3 257.0ZM922.3 257.5C921.4 255.6 920.5 254.2 920.2 254.4C919.8 254.9 922.8 261.0 923.5 261.0C923.8 261.0 923.2 259.4 922.3 257.5ZM176.7 257.2C176.9 256.1 176.2 253.8 175.1 251.9C172.7 248.1 172.5 243.6 174.3 240.2C175.5 238.2 175.8 238.1 177.5 239.5C180.4 241.6 181.3 241.4 183.3 237.8C184.7 235.4 185.4 235.0 186.3 235.9C187.2 236.8 187.2 237.5 186.2 239.0C185.6 240.1 185.0 241.7 185.0 242.5C185.0 244.6 187.7 244.4 188.9 242.2C190.6 239.3 190.1 242.6 188.1 247.3C187.0 249.9 184.3 253.2 181.7 255.4C176.7 259.5 176.0 259.7 176.7 257.2ZM410.0 257.4C410.0 256.5 410.5 256.0 411.2 256.2C413.0 256.8 413.3 259.0 411.6 259.0C410.7 259.0 410.0 258.3 410.0 257.4ZM425.9 255.2L422.5 251.5L426.2 254.9C428.3 256.8 430.0 258.5 430.0 258.7C430.0 259.5 429.2 258.7 425.9 255.2ZM839.9 254.6C833.5 248.6 830.9 243.0 834.5 243.0C835.6 243.0 835.9 242.1 835.8 239.8C835.4 235.2 838.6 234.6 840.1 239.0L841.2 242.1L844.0 239.5C847.1 236.6 847.4 236.8 848.4 242.3C849.1 246.3 847.6 253.0 845.9 253.0C845.4 253.0 845.0 254.1 845.0 255.5C845.0 258.8 844.2 258.6 839.9 254.6ZM498.9 254.6C499.8 253.5 499.4 253.1 496.5 252.6C494.6 252.2 493.0 251.6 493.0 251.2C492.9 250.8 492.0 249.4 490.9 248.1C489.2 246.0 488.7 245.9 487.9 247.1C486.6 249.1 486.8 250.0 488.4 250.0C489.2 250.0 490.0 250.3 490.2 250.8C490.6 251.8 496.1 256.0 497.0 256.0C497.4 256.0 498.3 255.4 498.9 254.6ZM676.4 253.7L678.9 251.4L676.4 248.4L673.9 245.5L674.4 249.2C674.6 251.3 674.4 253.2 673.9 253.5C673.0 254.1 672.6 256.0 673.4 256.0C673.7 256.0 675.0 255.0 676.4 253.7ZM232.4 250.1C225.8 242.7 224.6 239.7 224.6 230.0C224.5 221.9 227.7 208.9 230.1 207.5C230.5 207.2 231.2 210.0 231.6 213.7C232.4 221.9 233.6 225.4 235.1 224.4C235.9 224.0 236.0 221.8 235.6 218.1L235.0 212.5L237.2 215.0C244.7 223.8 245.9 235.7 240.4 248.2C238.8 251.9 237.3 254.9 237.0 254.9C236.7 254.8 234.6 252.7 232.4 250.1ZM782.5 248.8C779.9 243.5 779.6 241.7 779.6 234.1C779.7 225.4 780.8 221.9 785.9 214.0C787.5 211.6 787.5 211.7 788.0 218.0L788.5 224.5L790.3 220.6C791.2 218.5 792.0 214.8 792.0 212.3C792.0 206.3 793.5 207.6 796.0 215.9C798.5 224.3 798.6 234.8 796.2 240.8C794.7 244.7 787.3 254.9 786.0 254.9C785.7 254.9 784.2 252.2 782.5 248.8ZM460.2 249.0C460.5 246.8 460.0 245.4 458.0 243.5C454.5 240.1 453.9 240.3 454.1 244.8C454.5 251.3 459.4 254.7 460.2 249.0ZM371.5 249.1C371.2 248.6 371.4 247.9 372.0 247.5C373.2 246.8 375.0 247.7 375.0 249.1C375.0 250.3 372.3 250.3 371.5 249.1ZM681.5 243.0C681.5 242.3 680.9 241.5 680.2 241.2C679.5 241.0 679.0 241.7 679.0 243.0C679.0 244.3 679.5 245.0 680.2 244.8C680.9 244.5 681.5 243.7 681.5 243.0ZM369.0 242.5C368.3 241.6 367.9 240.7 368.2 240.5C368.9 239.7 372.0 241.0 372.0 242.0C372.0 243.7 370.2 243.9 369.0 242.5ZM525.8 242.8C525.3 241.5 520.2 238.2 518.5 238.1C518.0 238.0 519.1 239.3 521.0 241.0C524.7 244.1 526.4 244.8 525.8 242.8ZM634.0 243.2C634.0 241.8 627.1 235.6 626.3 236.3C626.0 236.7 627.2 238.6 629.0 240.5C632.3 243.9 634.0 244.8 634.0 243.2ZM414.0 240.5C411.7 238.0 411.8 235.0 414.4 235.0C415.3 235.0 416.0 236.4 416.2 238.8C416.8 243.5 416.8 243.5 414.0 240.5ZM485.5 242.4C486.8 241.9 486.9 241.6 485.8 240.9C483.7 239.5 482.0 239.9 482.6 241.5C483.3 243.2 483.3 243.2 485.5 242.4ZM912.5 238.9C911.6 237.2 910.6 236.0 910.3 236.3C909.8 236.8 912.8 242.0 913.6 242.0C913.9 242.0 913.3 240.6 912.5 238.9ZM360.8 240.3C356.2 239.8 356.0 238.7 359.9 237.0C363.0 235.8 365.5 236.4 364.4 238.2C364.0 238.8 364.4 239.6 365.1 240.1C365.9 240.6 366.1 240.9 365.5 240.8C364.9 240.7 362.8 240.5 360.8 240.3ZM447.0 239.0C446.2 238.5 445.9 237.8 446.3 237.4C446.7 237.0 447.8 237.4 448.7 238.3C450.5 240.1 449.5 240.6 447.0 239.0ZM604.0 238.0C604.0 237.5 602.9 236.3 601.5 235.4C600.1 234.5 599.0 232.9 599.0 231.8C599.0 229.2 596.6 230.0 596.2 232.8C596.0 233.9 596.8 235.8 597.9 236.9C600.1 239.1 604.0 239.8 604.0 238.0ZM643.6 234.2C642.5 233.2 642.1 234.6 642.8 237.0L643.5 239.5L643.8 237.2C644.0 235.9 643.9 234.6 643.6 234.2ZM418.4 236.5C418.8 235.4 417.9 234.3 415.6 232.9C413.7 231.8 411.9 230.3 411.6 229.5C410.9 227.5 408.4 227.6 407.6 229.6C407.1 230.9 406.7 231.0 405.5 230.0C404.7 229.3 404.0 228.1 404.0 227.3C404.0 226.0 403.7 226.0 402.5 227.0C401.2 228.1 400.4 227.7 397.5 224.7C394.6 221.7 393.3 221.1 390.2 221.2C385.4 221.3 377.5 219.7 377.5 218.5C377.5 217.3 386.3 217.1 387.1 218.3C387.5 218.8 389.1 218.7 391.3 218.0C395.0 216.6 398.0 217.1 398.0 219.2C398.0 220.1 397.7 220.1 396.8 219.2C395.2 217.6 394.0 217.7 394.0 219.5C394.0 221.6 397.3 222.8 405.2 223.5C409.1 223.9 412.4 224.7 413.1 225.6C413.7 226.4 415.3 227.0 416.7 227.0C419.2 227.0 419.9 228.0 420.4 232.6C420.6 234.1 421.2 235.6 421.9 235.8C424.0 236.5 423.0 238.0 420.4 238.0C418.5 238.0 417.9 237.6 418.4 236.5ZM426.2 236.8C424.9 236.2 424.1 234.9 424.2 234.1C424.5 232.8 425.9 232.5 431.4 232.5C439.4 232.5 440.9 234.0 434.8 235.8C432.4 236.5 430.1 237.3 429.5 237.5C428.9 237.7 427.5 237.4 426.2 236.8ZM249.3 235.2C248.4 233.1 250.7 226.7 253.9 222.3C259.3 214.9 274.4 209.5 280.0 213.0C281.1 213.7 280.8 214.1 278.5 214.9C273.6 216.6 270.7 218.4 271.1 219.5C271.8 221.2 277.1 220.3 280.2 218.0C284.4 214.9 284.7 216.1 281.1 221.3C277.4 226.8 267.0 234.7 262.7 235.5C255.8 236.7 249.8 236.6 249.3 235.2ZM758.5 234.8C754.1 233.2 746.4 227.1 742.4 222.1C737.6 215.9 737.8 214.3 742.9 218.1C744.4 219.2 747.7 220.4 750.1 220.7C754.0 221.3 754.4 221.2 753.2 219.7C752.5 218.9 749.4 217.1 746.4 215.9C739.0 212.8 739.5 211.6 748.2 212.2C757.1 212.8 764.4 216.2 768.8 221.7C771.5 225.1 774.0 231.4 774.0 234.8C774.0 236.3 762.9 236.3 758.5 234.8ZM474.0 233.5C474.0 232.4 472.9 232.0 470.0 232.0C467.8 232.0 466.0 232.4 466.0 232.9C466.0 234.4 459.1 230.6 459.0 229.0C459.0 228.0 458.7 227.9 458.2 228.6C455.7 232.4 443.5 229.7 437.8 224.1C436.1 222.5 433.4 220.6 431.6 219.9C429.9 219.2 427.8 218.1 427.0 217.5C426.2 216.8 422.1 215.8 418.1 215.1C414.0 214.5 410.1 213.5 409.5 213.0C408.8 212.4 406.6 212.1 404.4 212.1C400.7 212.2 389.0 210.7 384.2 209.5C383.0 209.2 382.0 209.4 382.0 209.9C382.0 210.4 381.1 210.6 380.0 210.3C378.9 210.0 378.0 210.3 378.0 210.9C378.0 211.5 376.9 212.0 375.6 212.0C374.2 212.0 372.8 212.4 372.5 213.0C372.2 213.6 370.6 214.0 369.0 214.0C367.4 214.0 365.1 214.4 363.8 214.9C359.5 216.5 354.0 217.1 354.0 216.1C354.0 214.5 364.2 209.0 367.2 209.0C368.8 209.0 370.0 208.6 370.0 208.1C370.0 207.5 370.8 207.2 371.8 207.2C372.7 207.3 376.2 206.5 379.5 205.6C389.3 202.7 391.1 202.5 390.4 204.4C390.1 205.3 389.0 206.0 388.0 206.0C386.9 206.0 385.9 206.4 385.6 206.8C385.3 207.3 387.3 207.3 390.1 206.7C394.2 205.9 395.0 205.4 394.5 203.9C394.0 202.5 394.5 202.1 396.7 202.2C398.2 202.3 400.5 202.0 401.8 201.6C405.6 200.4 404.2 202.5 399.9 204.4C394.7 206.7 396.0 208.3 403.2 208.4C407.2 208.5 408.6 208.9 408.8 210.2C409.3 212.8 420.7 212.5 421.5 209.9C422.2 207.9 423.7 207.5 425.9 208.9C426.9 209.6 426.8 210.0 425.1 211.2C424.0 212.0 423.3 212.9 423.6 213.3C424.4 214.1 431.4 212.9 432.1 211.8C433.0 210.3 436.0 212.1 436.0 214.1C436.0 216.1 438.4 216.7 439.5 215.0C439.8 214.4 440.7 214.0 441.3 214.0C442.1 214.0 442.0 214.3 441.1 214.9C439.3 216.0 440.6 218.0 443.1 218.0C445.5 218.0 445.6 220.5 443.2 221.5C441.6 222.1 441.7 222.2 443.5 223.2C444.6 223.8 446.4 225.1 447.5 226.1C449.0 227.5 450.5 227.7 453.8 227.3C456.6 226.9 457.7 226.4 456.9 225.9C456.1 225.5 455.8 224.8 456.2 224.5C456.6 224.1 458.1 224.7 459.7 225.9C461.2 227.0 464.6 228.1 467.1 228.3C473.7 229.0 480.3 232.5 477.8 234.1C475.8 235.4 474.0 235.1 474.0 233.5ZM528.6 232.9C525.7 230.6 525.1 227.7 527.7 228.2C528.6 228.4 530.0 230.0 530.7 231.8C532.2 235.6 532.1 235.7 528.6 232.9ZM512.4 230.6C511.8 229.0 508.0 228.3 508.0 229.8C508.0 230.7 512.2 233.0 512.8 232.5C512.9 232.4 512.8 231.5 512.4 230.6ZM906.4 228.6C905.5 227.1 904.5 226.1 904.3 226.4C904.0 226.6 904.6 228.0 905.6 229.4C906.5 230.9 907.5 231.9 907.7 231.6C908.0 231.4 907.4 230.0 906.4 228.6ZM715.0 227.8C715.0 226.5 715.5 224.8 716.0 224.0C716.7 222.9 717.0 223.5 717.0 226.2C717.0 228.3 716.5 230.0 716.0 230.0C715.5 230.0 715.0 229.0 715.0 227.8ZM447.7 222.3C446.5 221.2 446.9 220.0 448.5 220.0C449.3 220.0 450.0 220.7 450.0 221.5C450.0 223.1 448.8 223.5 447.7 222.3ZM577.6 221.5C576.5 220.7 576.0 219.7 576.5 219.3C576.9 218.8 577.5 219.1 577.7 219.8C578.0 220.4 578.8 221.0 579.6 221.0C580.4 221.0 581.0 221.4 581.0 222.0C581.0 223.4 579.9 223.2 577.6 221.5ZM769.8 217.7C764.7 209.9 764.0 207.6 764.0 199.4C764.0 193.7 764.5 191.0 766.2 187.5C767.5 185.1 768.8 183.0 769.2 183.0C769.7 183.0 770.0 185.2 770.0 188.0C770.0 193.6 771.4 194.7 772.4 189.9C773.3 185.1 773.1 180.1 771.9 177.7C770.9 175.7 770.9 175.7 772.3 177.0C776.7 181.3 782.0 195.1 782.0 202.2C782.0 206.7 779.3 214.1 775.8 219.2L773.2 223.0L769.8 217.7ZM246.9 218.2C239.2 207.1 239.3 196.9 247.2 182.1C250.3 176.3 253.0 172.8 251.5 176.5C249.5 181.4 249.8 193.0 252.0 193.0C252.5 193.0 253.0 191.2 253.2 189.0C253.4 186.8 253.9 185.1 254.5 185.2C255.1 185.4 255.4 187.0 255.2 188.8C255.0 190.7 255.3 192.0 256.0 192.0C256.7 192.0 256.9 191.1 256.5 189.8C256.1 188.1 256.4 188.3 257.7 190.5C260.7 195.7 260.1 205.3 256.2 212.5C253.1 218.4 250.7 222.0 249.9 222.0C249.7 222.0 248.3 220.3 246.9 218.2ZM900.6 219.2C899.8 217.7 898.4 215.6 897.5 214.5C896.0 212.6 895.9 212.6 897.1 215.0C898.7 218.2 901.1 222.0 901.6 222.0C901.9 222.0 901.4 220.8 900.6 219.2ZM367.9 219.1C369.2 217.9 371.4 217.0 372.9 217.0C375.4 217.1 375.4 217.1 373.6 218.5C372.5 219.3 371.1 220.0 370.4 220.0C369.7 220.0 368.3 220.3 367.3 220.6C365.9 221.0 366.0 220.7 367.9 219.1ZM504.3 215.0C503.9 214.6 502.1 214.0 500.5 213.6L497.5 212.9L499.9 214.9C502.2 216.6 506.2 216.7 504.3 215.0ZM569.0 213.0C569.0 212.4 569.9 212.0 571.1 212.0C572.2 212.0 572.8 212.4 572.5 213.0C572.2 213.6 571.2 214.0 570.4 214.0C569.6 214.0 569.0 213.6 569.0 213.0ZM523.0 208.5C520.6 206.0 518.8 204.0 519.1 204.0C519.4 204.0 521.6 206.0 524.0 208.5C526.4 211.0 528.2 213.0 527.9 213.0C527.6 213.0 525.4 211.0 523.0 208.5ZM542.8 211.3C540.8 210.8 540.5 209.5 542.0 208.5C543.3 207.7 547.2 209.9 546.5 211.1C545.9 212.0 545.6 212.1 542.8 211.3ZM614.8 205.4C613.0 203.6 611.5 201.4 611.5 200.7C611.5 198.6 608.3 195.9 606.6 196.6C604.5 197.4 604.6 199.0 606.6 199.0C608.6 199.0 610.9 201.8 611.0 204.2C611.0 206.2 615.8 210.2 617.2 209.4C617.7 209.1 616.6 207.3 614.8 205.4ZM666.6 204.2C665.7 203.4 664.0 205.2 664.0 206.8C664.1 208.3 664.2 208.3 665.5 206.6C666.3 205.5 666.8 204.5 666.6 204.2ZM266.8 206.3C263.3 205.8 263.3 205.6 267.4 199.0C272.8 190.4 280.6 186.0 290.5 186.0C297.1 186.0 297.6 187.4 292.0 190.0C284.3 193.6 285.8 195.3 294.4 192.8C296.6 192.2 299.1 191.2 299.8 190.7C300.6 190.1 301.0 190.1 301.0 190.8C301.0 192.8 289.5 202.2 284.2 204.6C279.0 206.9 274.0 207.4 266.8 206.3ZM738.2 204.4C732.9 201.7 723.0 193.6 723.0 192.0C723.0 191.5 725.1 191.7 727.8 192.5C737.1 195.4 739.0 193.9 730.7 190.1C726.2 188.1 725.8 187.7 727.5 187.0C734.3 184.2 745.2 187.2 751.7 193.7C755.5 197.5 759.7 204.7 758.7 205.7C758.4 205.9 754.9 206.4 750.8 206.6C744.3 207.1 742.9 206.8 738.2 204.4ZM412.1 203.2C412.2 201.6 412.4 201.2 412.7 202.2C412.9 203.2 413.6 204.0 414.1 204.0C414.6 204.0 415.0 204.4 415.0 205.0C415.0 205.6 414.3 206.0 413.5 206.0C412.5 206.0 412.0 205.1 412.1 203.2ZM637.6 203.2C637.4 202.8 637.8 201.7 638.5 200.7C640.0 198.7 641.3 199.9 640.4 202.4C639.7 204.1 638.4 204.5 637.6 203.2ZM446.6 201.5C445.1 200.7 443.3 200.0 442.6 200.0C441.0 200.1 446.2 202.9 448.0 203.0C448.8 203.0 448.2 202.3 446.6 201.5ZM383.5 199.0C384.6 198.5 386.4 198.2 387.5 198.2C389.1 198.2 389.0 198.4 387.0 199.0C383.6 200.1 381.0 200.1 383.5 199.0ZM884.0 194.5C882.3 192.0 880.7 190.0 880.4 190.0C880.1 190.0 881.3 192.0 883.0 194.5C884.7 197.0 886.3 199.0 886.6 199.0C886.9 199.0 885.7 197.0 884.0 194.5ZM391.8 197.3C393.0 197.1 394.8 197.1 395.8 197.3C396.7 197.6 395.7 197.8 393.5 197.7C391.3 197.7 390.5 197.5 391.8 197.3ZM697.5 190.9C694.2 187.6 692.2 185.2 693.1 185.5C694.5 186.0 704.7 197.0 703.8 197.0C703.6 197.0 700.8 194.3 697.5 190.9ZM583.0 193.5C582.3 192.7 581.3 192.0 580.7 192.0C580.2 192.0 580.5 192.9 581.5 194.0C583.6 196.3 585.0 195.9 583.0 193.5ZM658.0 194.5C656.0 192.1 657.4 191.7 659.5 194.0C660.5 195.1 660.8 196.0 660.3 196.0C659.7 196.0 658.7 195.3 658.0 194.5ZM263.5 188.5C260.3 180.8 260.1 175.5 262.9 167.7C264.9 161.8 269.6 154.3 272.7 152.0C274.3 150.7 274.4 150.8 273.0 152.3C271.1 154.3 271.4 168.4 273.3 167.7C274.0 167.5 274.6 165.5 274.8 163.2C275.0 160.9 275.5 159.0 275.9 159.0C277.1 159.0 279.0 167.0 279.0 171.6C279.0 176.1 274.3 186.0 269.6 191.2L266.3 195.0L263.5 188.5ZM642.5 191.5C640.9 190.2 639.8 188.8 640.2 188.5C640.5 188.2 642.1 189.0 643.6 190.4C647.4 193.6 646.4 194.5 642.5 191.5ZM752.8 190.2C747.6 184.8 745.0 178.1 745.0 169.9C745.0 162.8 746.9 155.5 747.7 159.5C749.6 168.9 752.0 170.0 752.0 161.5C752.0 158.5 752.4 155.9 752.9 155.5C754.2 154.8 759.5 164.3 761.4 171.0C762.4 174.3 762.8 177.8 762.4 180.0C761.7 183.3 757.5 194.0 756.8 194.0C756.6 194.0 754.8 192.3 752.8 190.2ZM438.3 188.5C438.0 187.6 438.0 186.7 438.3 186.3C439.3 185.3 442.0 186.9 442.0 188.5C442.0 190.5 439.1 190.5 438.3 188.5ZM505.7 182.5C503.7 181.1 503.4 178.0 505.2 178.0C505.9 178.0 507.5 178.8 508.8 179.8C510.9 181.4 510.9 181.6 509.2 182.6C507.8 183.5 507.0 183.5 505.7 182.5ZM529.0 182.0C527.8 181.3 527.8 180.8 528.7 179.9C529.6 179.0 530.3 179.0 531.4 180.0C534.0 182.1 531.9 183.9 529.0 182.0ZM288.7 180.5C285.6 179.9 282.7 179.6 282.3 179.9C281.9 180.2 283.2 178.2 285.1 175.5C291.7 166.1 300.1 162.3 311.5 163.6C318.9 164.5 319.1 165.4 312.2 167.0C309.1 167.7 306.1 168.7 305.6 169.2C304.1 170.4 313.8 170.2 316.2 168.9C319.4 167.2 319.5 168.7 316.4 171.5C307.6 179.3 298.1 182.4 288.7 180.5ZM672.1 179.5C672.1 179.0 671.7 178.4 671.1 178.2C670.5 178.0 670.0 178.6 670.0 179.5C670.0 180.4 670.5 181.0 671.1 180.8C671.7 180.6 672.1 180.0 672.1 179.5ZM721.1 180.1C716.8 179.0 709.7 174.0 709.4 171.9C709.3 171.0 709.7 170.3 710.4 170.3C718.5 170.5 718.5 168.7 710.4 167.0C702.5 165.3 704.9 163.6 715.2 163.6C722.5 163.5 724.1 163.8 728.2 166.2C734.2 169.8 740.5 177.0 738.8 178.3C737.9 178.9 738.2 179.0 739.5 178.5C741.0 178.1 741.2 178.2 740.4 179.0C738.9 180.5 725.5 181.2 721.1 180.1ZM869.5 175.0C867.0 171.7 864.7 169.0 864.4 169.0C864.1 169.0 866.0 171.7 868.5 175.0C871.0 178.3 873.3 181.0 873.6 181.0C873.9 181.0 872.0 178.3 869.5 175.0ZM519.0 177.3C517.7 176.4 515.7 175.6 514.5 175.5C513.3 175.5 511.5 174.7 510.6 173.7C509.6 172.8 508.2 172.0 507.4 172.0C506.6 172.0 506.0 171.5 506.0 170.9C506.0 169.5 510.0 170.4 515.6 173.1C517.8 174.1 519.9 175.0 520.3 175.0C520.6 175.0 522.1 175.5 523.7 176.1C525.9 176.9 526.1 177.3 525.0 178.0C522.9 179.4 521.8 179.2 519.0 177.3ZM565.2 173.5C564.8 171.3 560.7 168.0 558.5 168.0C557.4 168.0 560.2 172.5 562.4 174.2C565.3 176.6 565.8 176.4 565.2 173.5ZM159.9 168.3C162.4 165.2 163.9 163.0 163.3 163.3C161.5 164.4 153.7 174.0 154.7 173.9C155.1 173.9 157.5 171.4 159.9 168.3ZM674.2 170.9C671.0 168.8 670.3 168.0 671.8 168.0C672.6 168.1 678.8 173.0 678.0 173.0C677.7 173.0 676.0 172.0 674.2 170.9ZM705.5 170.0C703.8 168.2 703.8 168.0 705.4 168.0C706.3 168.0 707.3 168.7 707.7 169.5C708.6 172.0 707.5 172.2 705.5 170.0ZM734.0 166.7C726.5 158.2 724.8 154.6 724.2 147.0C723.6 138.2 724.5 135.4 726.5 139.4C727.3 141.0 728.0 142.8 728.0 143.6C728.0 145.0 729.8 146.5 730.6 145.8C731.3 145.0 727.8 134.6 726.1 132.6C724.5 130.7 724.6 130.7 727.1 132.4C729.9 134.2 734.4 139.6 737.7 145.0C740.6 149.9 741.2 155.3 739.8 164.2L738.5 171.9L734.0 166.7ZM283.6 163.4C282.0 156.9 282.0 155.7 283.3 151.2C285.1 145.2 288.6 139.6 293.0 135.5C296.3 132.5 296.3 132.5 295.6 135.0C293.8 141.3 293.0 145.3 293.4 145.7C294.4 146.7 296.0 144.8 296.0 142.6C296.0 141.3 296.7 139.7 297.5 139.0C298.8 137.9 299.0 138.6 299.0 144.1C299.0 153.8 297.5 157.5 291.1 164.4L285.4 170.5L283.6 163.4ZM495.5 169.8C494.4 169.2 489.6 168.3 484.7 167.9C478.8 167.4 475.3 166.7 474.1 165.6C472.6 164.3 471.2 164.1 466.2 164.8C462.8 165.3 460.0 165.3 460.0 164.8C460.0 164.4 461.3 164.0 462.9 164.0C464.6 164.0 466.1 163.6 466.4 163.1C467.4 161.5 473.1 161.3 478.3 162.7C481.2 163.5 484.9 163.8 486.7 163.5C488.4 163.2 490.1 163.4 490.5 164.0C490.8 164.5 492.1 165.0 493.4 165.0C494.9 165.0 496.1 165.9 496.9 167.6C498.3 170.8 498.1 171.2 495.5 169.8ZM617.0 166.5C616.4 165.7 612.8 163.6 609.2 161.9C605.5 160.1 601.4 157.8 600.0 156.8L597.5 154.8L600.5 155.6C602.2 156.0 604.0 156.7 604.7 157.2C605.3 157.7 609.1 159.8 613.1 161.8C617.1 163.8 620.5 166.1 620.8 166.8C621.3 168.5 618.5 168.3 617.0 166.5ZM542.1 165.4C539.3 163.4 540.7 161.6 544.4 162.6C547.3 163.3 547.7 164.2 545.7 165.8C544.7 166.7 543.8 166.5 542.1 165.4ZM704.5 159.0C701.0 158.2 694.6 154.9 691.0 152.1C688.1 149.8 688.3 149.7 692.7 150.9C694.9 151.6 696.4 151.4 697.6 150.6C699.1 149.4 699.0 149.2 696.0 148.2C693.3 147.2 692.9 146.8 694.0 145.5C695.0 144.2 694.9 144.0 693.2 144.0C690.6 144.0 684.0 140.9 684.0 139.8C684.0 139.3 683.6 139.1 683.1 139.5C682.6 139.8 681.8 139.6 681.5 139.0C681.1 138.3 682.2 138.2 684.8 138.6C687.9 139.1 688.8 138.9 689.3 137.6C689.7 136.7 691.1 136.0 692.8 136.0C696.2 136.0 705.0 141.4 705.0 143.4C705.0 144.2 705.8 145.1 706.8 145.4C710.4 146.6 717.7 151.8 719.8 154.7L721.9 157.6L718.7 157.7C716.9 157.7 713.7 158.2 711.5 158.7C709.3 159.2 706.1 159.3 704.5 159.0ZM305.3 158.1L301.0 157.5L304.7 153.6C306.7 151.5 310.8 148.2 313.7 146.3C316.6 144.5 319.0 142.5 319.0 142.1C319.0 140.8 327.5 136.0 329.9 136.0C331.0 136.0 332.6 136.8 333.5 137.7C334.9 139.1 335.9 139.2 339.1 138.3C342.4 137.4 342.8 137.5 341.9 138.7C341.2 139.4 340.5 139.8 340.3 139.6C340.0 139.4 339.0 140.0 338.0 141.0C337.0 142.0 334.0 143.2 331.4 143.6C327.3 144.2 326.9 144.5 328.3 145.5C330.5 147.1 330.4 148.0 328.1 148.0C325.0 148.0 324.6 149.9 327.6 150.6C329.6 151.1 329.9 151.5 328.8 152.2C327.9 152.9 328.1 153.0 329.8 152.7C333.4 151.9 331.5 153.5 325.5 156.4C319.8 159.1 315.0 159.5 305.3 158.1ZM618.1 152.9C615.1 151.3 613.2 150.0 613.9 150.0C615.1 150.0 621.0 152.9 624.0 154.9C626.9 156.9 623.5 155.7 618.1 152.9ZM591.4 153.5C589.6 152.1 589.6 152.1 591.7 152.0C594.0 152.0 595.6 153.5 594.2 154.4C593.7 154.7 592.4 154.3 591.4 153.5ZM627.5 150.9C621.9 149.4 621.4 149.1 625.0 149.5C629.9 150.1 639.7 152.9 636.5 152.8C635.4 152.8 631.4 151.9 627.5 150.9ZM332.1 151.1C331.2 150.5 331.5 150.1 333.1 149.7C335.9 148.9 336.5 149.4 334.7 150.8C334.0 151.4 332.8 151.5 332.1 151.1ZM845.9 147.1C843.5 144.4 841.1 142.2 840.5 142.1C840.0 142.0 841.8 144.2 844.5 147.0C850.8 153.4 851.6 153.5 845.9 147.1ZM582.5 150.6C582.0 150.4 579.6 149.7 577.2 149.0C572.6 147.6 571.3 145.3 575.8 146.5C577.3 146.8 580.4 147.4 582.8 147.8C587.2 148.5 589.0 150.4 585.5 150.7C584.4 150.8 583.0 150.7 582.5 150.6ZM304.2 149.2C304.3 148.8 304.0 146.6 303.6 144.4C303.2 142.0 303.3 138.5 303.9 136.2C305.1 132.0 311.9 123.7 317.3 119.8L320.5 117.5L318.2 120.7C315.7 124.2 314.9 129.0 317.4 125.8C319.4 123.1 320.0 123.6 320.0 128.0C320.0 133.7 316.0 141.0 310.2 145.9C305.3 149.9 303.8 150.8 304.2 149.2ZM431.0 148.8C431.0 146.4 442.0 137.3 449.2 133.7C460.4 128.2 480.1 122.5 496.0 120.1C547.1 112.3 566.8 106.1 579.1 93.6C583.0 89.7 585.0 88.3 585.0 89.4C585.0 90.3 584.6 90.9 584.1 90.6C583.6 90.3 582.9 90.7 582.6 91.6C582.3 92.4 582.4 92.8 583.0 92.5C586.9 90.1 580.3 101.6 574.9 106.6C562.5 118.1 547.2 122.5 493.5 130.1C464.3 134.2 446.6 139.4 435.3 147.2C432.7 148.9 431.0 149.6 431.0 148.8ZM713.3 145.9C707.7 141.4 704.4 135.2 703.7 127.9L703.3 123.2L705.7 125.9L708.1 128.5L707.7 126.0C707.5 124.6 706.9 122.6 706.5 121.6C705.1 118.3 711.7 123.8 715.8 129.5C719.2 134.0 719.5 135.1 719.9 142.2C720.1 146.8 719.8 150.0 719.2 150.0C718.7 150.0 716.0 148.2 713.3 145.9ZM605.0 147.0C605.0 146.4 606.2 146.0 607.8 146.0C609.9 146.0 610.2 146.2 609.0 147.0C607.0 148.3 605.0 148.3 605.0 147.0ZM414.7 141.2C413.0 138.3 413.2 132.7 415.0 126.6C420.5 108.8 444.2 97.0 484.5 92.0C534.4 85.9 552.2 81.3 563.9 71.4C568.0 68.0 568.5 68.6 565.9 73.8C561.2 83.2 546.7 91.9 528.3 96.5C518.7 98.8 516.4 99.3 496.5 102.5C478.0 105.6 461.5 108.9 457.1 110.5C454.7 111.3 452.1 112.0 451.4 112.0C450.6 112.0 446.0 113.9 441.3 116.2C431.1 121.2 421.7 129.8 418.1 137.2C415.8 142.1 415.4 142.5 414.7 141.2ZM838.0 138.7C838.0 138.6 835.0 135.5 831.3 132.0C827.6 128.4 825.5 126.6 826.5 127.9C829.8 131.8 838.0 139.6 838.0 138.7ZM322.4 134.2C322.7 133.3 323.2 130.7 323.6 128.5C323.9 126.3 325.3 122.9 326.6 120.9C329.2 117.1 334.8 112.5 335.7 113.4C336.4 114.1 334.0 117.1 333.1 116.6C332.8 116.4 332.5 117.3 332.5 118.6C332.5 121.5 332.8 121.6 335.7 118.9L337.9 116.7L336.8 119.8C335.4 123.5 336.3 124.9 338.7 122.8C339.7 121.9 343.0 120.0 346.0 118.6L351.5 115.9L346.5 120.4C341.8 124.7 341.6 125.0 343.8 125.6C346.5 126.4 346.6 127.1 344.2 129.8C342.0 132.3 334.3 134.2 331.8 132.9C330.4 132.1 329.0 132.4 326.4 133.9C322.1 136.4 321.7 136.5 322.4 134.2ZM696.1 133.5C694.4 132.5 693.1 132.5 691.5 133.2C689.8 133.9 687.7 133.8 683.6 132.6C677.8 130.9 676.3 128.7 680.2 127.7C682.2 127.1 682.0 126.7 677.1 122.0C674.2 119.2 672.0 116.7 672.2 116.4C672.5 116.2 676.0 117.8 680.0 120.0C687.3 124.2 689.4 124.5 687.2 121.0C685.3 117.9 685.8 117.5 688.5 120.0C690.8 122.2 691.0 122.2 691.0 120.4C691.0 119.3 690.3 117.4 689.4 116.2C687.4 113.3 688.5 113.4 692.7 116.6C697.5 120.2 699.3 123.5 700.0 129.7C700.6 135.4 700.2 135.8 696.1 133.5ZM225.7 102.7C226.1 102.0 224.1 103.5 221.2 105.8C218.3 108.2 215.7 110.7 215.3 111.3C214.9 112.0 216.9 110.5 219.8 108.2C222.7 105.8 225.3 103.3 225.7 102.7ZM234.4 96.5C235.5 95.7 236.2 94.8 235.9 94.6C235.7 94.4 233.9 95.6 232.0 97.2C228.6 100.1 230.5 99.6 234.4 96.5ZM243.6 88.8C244.0 88.1 242.7 88.9 240.7 90.4C238.7 92.0 237.0 93.4 237.0 93.7C237.0 94.4 242.8 90.1 243.6 88.8ZM780.0 88.6C780.0 88.3 778.5 87.2 776.8 86.0L773.5 83.8L776.3 86.4C779.0 88.9 780.0 89.5 780.0 88.6ZM257.0 79.4C257.0 79.1 255.0 80.3 252.5 82.0C250.0 83.7 248.0 85.3 248.0 85.6C248.0 85.9 250.0 84.7 252.5 83.0C255.0 81.3 257.0 79.7 257.0 79.4ZM299.9 54.4C301.7 53.5 302.9 52.6 302.7 52.3C302.1 51.8 296.0 54.8 296.0 55.5C296.0 56.3 296.4 56.1 299.9 54.4ZM728.0 55.5C728.0 54.8 705.9 43.8 705.4 44.3C705.0 44.7 725.6 55.6 727.2 55.9C727.7 55.9 728.0 55.8 728.0 55.5ZM312.3 48.1C316.0 46.2 318.8 44.5 318.6 44.3C318.1 43.8 304.0 50.8 304.0 51.6C304.0 52.3 303.6 52.4 312.3 48.1ZM327.8 41.1C330.2 39.8 336.7 37.0 337.3 37.0C338.4 37.0 347.1 32.8 346.7 32.4C346.3 32.0 328.6 39.0 325.4 40.9C323.1 42.2 325.3 42.4 327.8 41.1ZM680.3 33.0C671.6 29.0 662.2 25.8 660.7 26.3C660.1 26.5 661.3 27.3 663.5 27.9C665.7 28.5 671.1 30.6 675.5 32.4C685.3 36.5 688.8 37.0 680.3 33.0ZM352.4 31.2C352.7 30.8 355.2 29.8 358.0 29.0C360.8 28.2 363.4 27.2 363.7 26.6C364.1 26.1 363.7 25.9 362.9 26.2C362.1 26.5 358.5 27.7 354.8 28.9C351.0 30.2 348.0 31.4 348.0 31.6C348.0 32.4 351.9 32.0 352.4 31.2ZM373.0 24.0C375.3 23.4 377.0 22.6 376.7 22.3C376.1 21.7 366.0 24.9 366.0 25.7C366.0 26.0 366.6 26.0 367.4 25.7C368.2 25.4 370.7 24.6 373.0 24.0ZM393.5 18.0C396.8 17.0 398.9 16.1 398.2 16.1C396.4 16.0 386.0 19.0 386.0 19.6C386.0 20.3 387.3 20.0 393.5 18.0ZM640.0 19.6C640.0 18.9 629.4 16.0 627.3 16.1C626.3 16.2 628.0 17.0 631.0 18.0C636.4 19.8 640.0 20.4 640.0 19.6ZM413.5 13.5C422.3 11.6 425.0 10.4 418.0 11.4C411.6 12.4 400.0 15.2 400.0 15.7C400.0 16.3 402.7 15.9 413.5 13.5ZM621.0 14.4C611.8 11.4 582.8 6.1 576.5 6.2C573.4 6.2 585.5 8.8 599.0 11.0C603.1 11.7 609.6 13.1 613.5 14.0C622.1 16.2 627.6 16.5 621.0 14.4ZM441.7 8.4C450.9 7.0 454.4 6.0 450.7 6.0C447.9 6.0 428.6 9.0 428.1 9.5C427.3 10.4 431.9 10.0 441.7 8.4ZM466.0 5.1L470.5 4.3L466.0 4.2C463.5 4.1 459.7 4.5 457.5 4.9L453.5 5.8L457.5 5.8C459.7 5.8 463.5 5.5 466.0 5.1ZM572.8 5.5C571.7 4.4 535.5 2.0 522.0 2.2L507.5 2.3L526.5 3.2C537.0 3.6 549.1 4.4 553.5 4.9C562.7 5.9 573.6 6.2 572.8 5.5ZM496.5 3.1L505.5 2.3L497.0 2.3C492.3 2.2 484.7 2.5 480.0 2.9L471.5 3.7L479.5 3.7C483.9 3.8 491.6 3.5 496.5 3.1Z"/></svg>