<svg xmlns="http://www.w3.org/2000/svg" viewBox="0 0 1024 602" fill="currentColor"><path fill-rule="evenodd" d="M0.0 583.4C0.0 568.9 0.3 565.0 1.2 565.6C2.2 566.2 2.2 566.1 1.3 564.9C0.3 563.6 0.0 504.2 0.0 281.7L-0.0 -0.0L319.6 0.0C537.1 0.0 639.8 0.3 641.1 1.0C642.4 1.7 643.0 1.7 643.0 1.0C643.0 0.3 702.9 0.0 833.5 0.0L1024.0 0.0L1023.9 233.2C1023.9 390.5 1023.5 465.7 1022.9 464.0C1017.0 449.4 1011.2 442.8 999.7 437.5C981.8 429.3 960.8 430.3 940.1 440.2C916.8 451.3 901.1 479.5 905.0 503.3C908.0 521.2 918.8 532.9 937.5 538.6C949.0 542.1 970.0 540.9 982.5 536.0C1001.3 528.7 1014.6 515.2 1020.6 497.3C1021.8 493.8 1023.0 490.6 1023.4 490.3C1023.7 489.9 1024.0 514.9 1024.0 545.8L1024.0 602.0L909.0 602.0C824.6 602.0 794.0 601.7 794.0 600.9C794.0 600.1 793.6 600.1 792.7 600.8C790.8 602.4 740.0 602.3 740.0 600.7C740.0 599.9 739.6 600.0 738.8 600.8C737.1 602.5 713.0 602.5 713.0 600.8C713.0 599.8 712.8 599.8 712.2 600.7C711.1 602.4 653.6 602.5 654.6 600.8C655.2 599.8 655.0 599.7 653.9 600.8C652.2 602.4 646.8 602.4 645.1 600.8C644.0 599.8 643.9 599.8 644.4 600.7C644.9 601.7 637.0 601.9 608.0 601.9C587.3 601.8 571.0 601.4 571.0 600.9C571.0 600.4 569.9 600.5 568.4 601.0C564.5 602.5 556.7 602.3 557.6 600.8C558.1 600.0 557.7 600.0 556.6 600.9C555.1 602.2 554.7 602.2 553.9 600.9C553.4 600.1 553.0 600.0 553.0 600.7C553.0 601.5 548.1 601.8 535.5 601.9C522.6 602.0 518.0 601.7 518.0 600.8C518.0 599.9 517.7 599.9 516.8 600.8C515.3 602.3 507.0 602.4 507.0 600.9C507.0 600.1 506.6 600.1 505.7 600.8C503.8 602.4 467.8 602.3 466.8 600.8C466.2 599.8 466.0 599.8 466.0 600.8C466.0 601.6 464.4 602.0 461.5 602.0C458.8 602.0 457.0 601.5 457.0 600.9C457.0 600.1 456.6 600.1 455.7 600.9C454.7 601.7 454.0 601.6 453.0 600.7C452.0 599.8 451.9 599.8 452.4 600.8C453.3 602.3 446.3 602.5 444.0 601.0C443.1 600.4 442.3 600.5 441.9 601.2C441.3 602.1 440.7 602.0 439.6 601.1C438.5 600.2 438.0 600.1 438.0 600.9C438.0 602.3 365.4 602.5 361.6 601.0C359.9 600.4 359.0 600.4 359.0 601.0C359.0 602.5 355.3 602.2 354.7 600.8C354.3 599.8 354.1 599.8 354.1 600.8C354.0 602.5 312.4 602.5 311.6 600.7C311.3 599.8 311.1 599.8 311.1 600.8C311.0 602.4 301.0 602.5 301.0 600.9C301.0 600.1 300.6 600.1 299.8 600.7C297.8 602.3 278.8 602.3 277.8 600.8C277.0 599.8 276.7 599.8 276.3 600.8C275.9 601.7 247.3 602.0 137.9 602.0L0.0 602.0L0.0 583.4ZM248.9 595.6C252.2 589.5 246.9 582.9 241.3 586.0C236.2 588.8 235.6 596.6 240.2 598.7C243.2 600.0 247.4 598.6 248.9 595.6ZM390.1 597.7C396.8 593.2 394.0 583.5 386.5 585.4C384.1 586.0 380.0 591.2 380.0 593.6C380.0 595.0 384.6 600.0 385.8 600.0C386.3 600.0 388.2 599.0 390.1 597.7ZM488.9 596.4C491.5 593.0 491.6 589.6 489.0 587.0C484.7 582.7 478.0 586.4 478.0 593.0C478.0 599.3 484.9 601.4 488.9 596.4ZM595.4 595.9C598.5 592.2 598.7 590.1 596.0 587.2C593.2 584.2 589.4 584.4 586.5 587.6C583.6 590.7 583.3 594.6 585.7 597.2C588.2 600.0 592.4 599.5 595.4 595.9ZM680.4 596.8C685.5 592.2 684.1 586.0 677.9 585.7C674.8 585.5 674.6 585.7 673.3 590.9C672.5 593.9 672.1 596.9 672.4 597.6C673.2 599.7 677.6 599.3 680.4 596.8ZM762.3 596.8C764.2 594.9 765.0 591.1 764.0 588.5C763.0 586.0 757.5 584.1 755.9 585.7C754.7 586.9 753.0 597.2 753.7 598.4C754.5 599.5 760.7 598.4 762.3 596.8ZM287.8 594.1C289.3 593.2 289.1 588.8 287.5 588.3C286.3 588.0 283.8 592.9 284.6 594.1C285.2 595.2 286.1 595.2 287.8 594.1ZM529.8 593.5C530.3 593.0 528.0 588.0 527.3 588.0C526.2 588.0 524.0 593.1 524.6 594.2C525.1 594.9 528.7 594.4 529.8 593.5ZM565.5 594.0C566.3 592.8 565.0 588.0 563.9 588.0C563.4 588.0 562.4 589.2 561.8 590.6C560.8 592.7 560.9 593.3 562.1 594.1C563.9 595.2 564.7 595.2 565.5 594.0ZM707.5 594.0C708.4 592.6 707.0 588.0 705.6 588.0C704.3 588.0 701.8 592.9 702.6 594.1C703.3 595.3 706.7 595.2 707.5 594.0ZM733.8 591.2C734.2 587.2 731.8 586.8 730.1 590.7C729.1 592.8 729.2 593.5 730.2 594.1C732.3 595.5 733.5 594.5 733.8 591.2ZM787.8 594.1C789.2 593.2 788.5 588.0 786.9 588.0C785.6 588.0 783.8 592.0 784.4 593.6C785.0 595.2 785.9 595.3 787.8 594.1ZM514.8 590.8C517.8 588.3 514.0 584.2 510.0 585.5C508.0 586.1 507.1 590.8 508.7 592.3C509.5 593.1 512.9 592.2 514.8 590.8ZM274.8 589.9C276.5 587.2 274.7 584.8 271.1 585.2C269.0 585.4 268.4 586.1 268.2 588.8C267.9 591.7 268.1 592.0 270.7 592.0C272.5 592.0 274.0 591.2 274.8 589.9ZM308.8 590.8C310.8 588.8 310.2 586.3 307.4 585.6C304.2 584.8 302.0 586.4 302.0 589.6C302.0 591.6 302.5 592.0 304.8 592.0C306.3 592.0 308.1 591.5 308.8 590.8ZM370.8 590.8C372.1 589.5 372.4 586.0 371.2 586.0C370.8 586.0 369.5 585.7 368.3 585.4C365.9 584.7 363.4 588.0 364.4 590.6C365.1 592.3 369.1 592.5 370.8 590.8ZM454.7 590.0C455.7 588.5 455.7 587.8 454.4 586.5C451.7 583.8 448.5 585.0 448.2 588.8C447.9 591.7 448.1 592.0 450.7 592.0C452.4 592.0 454.0 591.2 454.7 590.0ZM548.8 590.8C551.9 587.7 548.6 584.1 544.0 585.5C542.6 585.9 542.0 587.0 542.0 589.1C542.0 591.6 542.4 592.0 544.8 592.0C546.3 592.0 548.1 591.5 548.8 590.8ZM140.5 577.0C148.5 575.6 186.1 572.6 228.0 570.0C236.0 569.6 245.7 569.0 249.5 568.7C253.3 568.5 265.9 567.8 277.5 567.1C296.9 566.1 312.7 565.5 384.0 563.0C427.9 561.4 621.2 561.8 668.0 563.5C690.3 564.3 722.5 565.4 739.6 566.0C756.8 566.5 771.4 567.2 772.1 567.5C772.9 567.7 778.9 568.2 785.5 568.5C799.7 569.2 818.1 570.5 852.0 573.0C856.6 573.4 885.3 576.0 889.5 576.5C903.8 578.1 910.6 578.6 911.4 578.1C912.9 577.4 908.9 576.1 904.8 576.1C902.8 576.0 900.1 575.6 898.8 575.1C897.5 574.6 892.7 573.7 888.0 573.0C883.3 572.4 873.6 571.0 866.5 570.0C845.7 566.9 824.4 564.2 812.0 563.1C805.7 562.5 798.5 561.8 796.0 561.5C793.5 561.3 789.0 560.9 786.0 560.6C783.0 560.3 775.3 559.7 769.0 559.1C742.9 556.7 714.1 554.8 692.0 554.0C679.1 553.5 660.2 552.6 650.0 552.0C639.8 551.4 628.6 550.9 625.0 550.9C621.4 550.8 596.5 550.5 569.5 550.1C520.7 549.5 428.1 550.1 399.5 551.3C360.8 552.9 291.9 557.0 269.0 559.1C262.7 559.7 254.8 560.4 251.5 560.6C227.7 562.7 208.2 564.6 203.0 565.4C201.1 565.7 195.2 566.4 190.0 567.0C184.8 567.7 175.1 569.0 168.5 570.0C161.9 571.0 152.7 572.4 148.0 573.0C143.3 573.6 138.1 574.5 136.4 575.1C134.7 575.6 132.0 576.0 130.4 576.0C126.6 576.0 123.0 577.0 123.0 578.0C123.0 578.9 133.2 578.4 140.5 577.0ZM831.3 537.8C834.7 536.7 839.4 534.5 841.8 532.9C844.2 531.3 846.5 530.0 847.1 530.0C848.3 530.0 848.3 531.3 846.9 532.7C846.1 533.5 846.1 534.4 846.9 535.9C848.0 537.9 848.8 538.0 863.9 538.0C875.4 538.0 880.0 537.7 880.7 536.8C882.1 534.9 883.6 530.3 885.0 523.5C886.8 514.7 889.9 501.0 893.9 483.9C896.3 473.9 896.8 460.3 895.0 454.2C888.5 432.8 849.4 425.4 811.5 438.5C804.3 441.0 803.8 441.6 804.4 446.9C804.8 449.4 805.4 454.6 805.8 458.3C806.2 462.2 807.1 465.5 807.9 465.9C808.7 466.5 811.9 465.9 815.9 464.5C826.6 460.9 831.5 460.0 840.6 460.0C854.1 460.0 860.1 464.3 858.5 472.8C858.0 475.8 857.6 476.1 855.7 475.5C851.5 474.1 823.8 473.7 818.0 475.0C809.4 476.8 800.9 480.0 796.4 483.1C777.1 496.3 774.3 523.3 791.2 534.1C802.0 541.1 817.2 542.5 831.3 537.8ZM69.5 524.7C89.7 510.6 91.6 510.0 115.3 510.0C129.0 510.0 133.0 509.7 132.9 508.8C132.5 506.5 134.2 502.0 135.2 502.6C135.7 502.9 136.0 502.6 135.8 501.9C135.3 499.6 138.3 491.8 139.1 493.2C139.6 493.9 139.8 493.1 139.8 491.3C139.7 487.1 142.0 481.4 143.1 483.2C143.7 484.0 144.0 483.3 144.0 481.2C144.0 479.4 144.8 475.8 145.9 473.2C153.3 454.9 153.5 453.4 148.5 458.4C140.8 466.2 137.4 466.9 108.0 467.2C85.1 467.5 84.3 467.6 79.6 470.0C71.5 474.1 71.6 474.0 65.0 502.5C62.0 515.5 60.1 523.2 58.4 528.8C57.4 532.4 59.7 531.5 69.5 524.7ZM247.5 514.8C255.2 511.8 260.0 506.9 262.0 500.1C263.4 495.0 262.2 494.5 249.3 494.5C235.8 494.5 231.3 496.0 227.2 502.1C223.1 508.1 226.0 515.1 233.0 516.3C236.5 516.9 243.9 516.1 247.5 514.8ZM640.7 473.2C640.5 471.7 640.3 473.0 640.3 476.0C640.3 479.0 640.5 480.3 640.7 478.8C640.9 477.2 640.9 474.8 640.7 473.2ZM604.0 472.9C604.0 468.2 600.5 463.4 595.4 460.9C589.1 457.9 578.3 458.5 572.4 462.3C567.5 465.3 562.0 471.7 562.0 474.2C562.0 475.9 563.6 476.0 583.0 476.0L604.0 476.0L604.0 472.9ZM128.3 417.3C123.8 417.1 116.1 417.1 111.3 417.3C106.5 417.4 110.2 417.6 119.5 417.6C128.8 417.6 132.8 417.4 128.3 417.3ZM882.1 412.0C890.4 409.7 897.4 402.1 902.0 390.6C904.3 384.9 904.3 384.7 902.5 383.4C901.5 382.6 898.5 382.0 895.9 382.0C892.2 382.0 890.7 382.5 888.9 384.5C884.0 389.8 876.8 391.5 870.3 388.9C868.8 388.3 866.6 387.4 865.5 387.0C852.4 381.9 851.9 381.8 845.3 382.2C832.0 383.0 824.1 389.4 818.2 403.9C814.9 412.0 814.9 412.0 823.5 412.0C829.7 412.0 831.1 411.7 831.9 410.1C832.5 409.1 834.6 407.5 836.6 406.5C841.2 404.3 847.0 405.1 855.4 409.0C865.8 413.9 872.8 414.7 882.1 412.0ZM637.2 408.3C636.0 408.1 634.0 408.1 632.8 408.3C631.5 408.5 632.5 408.7 635.0 408.7C637.5 408.7 638.5 408.5 637.2 408.3ZM304.2 400.8C303.3 400.0 288.0 399.3 288.0 400.1C288.0 401.5 289.6 401.8 297.0 401.6C301.3 401.6 304.6 401.2 304.2 400.8ZM640.8 400.3C638.7 400.1 635.3 400.1 633.2 400.3C631.2 400.5 632.9 400.7 637.0 400.7C641.1 400.7 642.8 400.5 640.8 400.3ZM452.6 391.9C452.3 390.2 452.0 387.7 452.0 386.4C452.0 383.6 449.3 383.1 448.3 385.8C448.0 386.7 446.8 388.7 445.8 390.2C443.0 394.2 443.5 395.0 448.6 395.0L453.2 395.0L452.6 391.9ZM347.4 388.8C350.5 387.4 351.5 384.8 350.0 382.0C349.1 380.2 348.1 379.9 344.2 380.2C339.9 380.5 339.5 380.8 338.7 383.7C338.2 385.5 338.0 387.6 338.3 388.4C339.1 390.3 343.8 390.5 347.4 388.8ZM519.1 372.2C517.3 372.0 515.4 372.2 514.9 372.7C514.4 373.2 516.0 373.3 518.3 373.0C522.4 372.6 522.4 372.5 519.1 372.2ZM524.0 342.1C533.1 335.6 528.5 322.0 517.2 322.0C513.5 322.0 512.2 322.6 509.4 325.4C499.4 335.4 512.4 350.3 524.0 342.1ZM656.9 340.9C662.2 335.6 660.9 326.5 654.3 323.1C645.8 318.8 635.7 326.2 637.4 335.4C639.0 343.9 650.7 347.2 656.9 340.9ZM532.8 297.3C531.8 297.1 530.0 297.1 528.8 297.3C527.5 297.5 528.3 297.7 530.5 297.7C532.7 297.8 533.7 297.6 532.8 297.3ZM438.0 284.0C440.4 281.6 440.5 278.9 438.4 274.7C435.4 268.8 434.1 268.0 428.1 268.0C420.6 268.0 391.3 269.7 359.0 272.1C344.4 273.1 329.2 274.0 325.2 274.0C321.3 274.0 318.0 274.4 318.0 274.9C318.0 275.7 332.2 277.3 357.5 279.3C371.8 280.5 391.3 282.3 406.5 284.0C430.3 286.5 435.5 286.5 438.0 284.0ZM503.0 268.6C503.6 266.7 504.2 263.2 504.3 260.8L504.5 256.5L498.5 256.2C491.5 255.8 488.0 256.5 488.0 258.3C488.0 260.1 491.9 268.1 493.8 270.2C494.6 271.2 496.7 272.0 498.6 272.0C501.4 272.0 502.0 271.5 503.0 268.6ZM545.6 265.0C548.7 256.2 548.7 253.0 545.8 253.0C539.1 253.0 520.5 255.2 519.4 256.0C517.9 257.3 514.7 269.7 515.6 271.1C515.9 271.7 521.7 271.9 529.8 271.8L543.4 271.5L545.6 265.0ZM584.8 270.8C585.3 270.1 587.3 265.1 589.0 259.6C592.4 249.2 592.2 247.4 587.5 248.4C586.4 248.7 580.5 249.4 574.5 250.0C565.4 250.9 563.2 251.4 561.8 253.1C560.8 254.3 560.0 255.9 560.0 256.8C560.0 258.3 558.6 263.3 556.9 267.8C556.4 269.1 556.2 270.6 556.5 271.1C557.5 272.5 583.6 272.2 584.8 270.8ZM626.7 270.8C628.4 268.6 635.9 245.7 635.3 244.7C634.5 243.4 608.8 245.7 606.3 247.3C604.8 248.2 597.8 269.8 598.5 271.1C599.5 272.5 625.6 272.3 626.7 270.8ZM666.2 270.6C669.0 268.5 681.0 239.7 679.7 238.3C679.3 238.0 675.5 238.2 671.2 238.8C667.0 239.4 660.9 240.2 657.7 240.5C651.6 241.2 648.6 243.2 647.7 247.3C647.4 248.5 645.8 253.3 644.0 258.0C642.2 262.7 640.5 267.7 640.3 269.2L639.8 272.0L652.1 272.0C660.8 271.9 665.0 271.5 666.2 270.6ZM423.7 242.9C425.8 238.5 421.4 227.8 416.7 226.1C413.6 225.0 339.6 227.7 299.5 230.5C287.4 231.3 272.7 232.0 266.8 232.0C260.7 232.0 255.9 232.4 255.5 233.0C254.5 234.6 256.5 234.9 274.0 235.9C283.1 236.4 293.2 237.1 296.5 237.3C299.8 237.6 309.9 238.3 319.0 238.9C328.1 239.6 343.1 240.8 352.5 241.6C361.9 242.4 376.7 243.5 385.5 244.1C394.3 244.6 405.1 245.4 409.5 245.8C419.3 246.7 422.1 246.1 423.7 242.9ZM507.7 243.8C508.7 242.8 510.1 239.3 510.9 235.8C511.6 232.3 512.5 228.3 513.0 226.9C514.7 221.3 513.8 221.0 492.5 221.0C481.4 221.0 472.9 221.4 472.5 221.9C472.2 222.5 474.3 228.1 477.1 234.5L482.3 246.2L494.1 245.8C503.4 245.6 506.2 245.2 507.7 243.8ZM539.8 242.6C546.0 241.9 551.5 240.9 552.0 240.4C553.3 239.1 558.0 223.2 558.0 219.8C558.0 216.2 556.9 215.7 550.7 216.8C547.9 217.4 541.9 218.4 537.5 219.1C533.1 219.7 528.7 220.9 527.8 221.7C526.0 223.3 521.4 241.3 522.5 243.0C523.3 244.3 525.6 244.2 539.8 242.6ZM584.9 238.0C596.2 236.9 596.8 236.4 599.9 226.0C601.2 221.9 602.8 216.5 603.6 214.1C605.8 207.6 605.0 207.3 590.8 209.9C575.8 212.6 573.9 213.1 572.9 215.0C571.0 218.5 565.9 237.3 566.4 238.7C566.9 239.9 568.0 240.1 571.3 239.6C573.6 239.3 579.7 238.6 584.9 238.0ZM628.6 232.9C634.1 232.3 639.4 231.2 640.3 230.5C642.2 229.2 651.2 205.1 651.4 201.0C651.5 198.8 651.1 198.5 648.5 198.7C641.8 199.0 621.5 204.1 619.9 205.8C619.0 206.7 616.8 212.2 615.0 218.0C613.3 223.8 611.5 229.5 611.0 230.6C609.8 233.5 611.7 235.1 615.5 234.5C617.1 234.3 623.0 233.6 628.6 232.9ZM677.0 226.8C685.6 225.5 687.0 224.5 688.9 219.3C689.7 217.2 691.3 213.2 692.6 210.5C696.4 202.0 701.0 190.0 701.0 188.4C701.0 186.7 698.8 186.9 686.0 190.0C681.9 191.0 676.6 192.1 674.3 192.5C667.4 193.6 668.0 192.7 659.3 216.5C657.9 220.3 656.6 224.8 656.3 226.4L655.7 229.3L662.6 228.7C666.4 228.3 672.9 227.5 677.0 226.8ZM409.5 201.8C412.9 198.7 412.9 195.5 409.6 188.6C405.7 180.6 404.0 180.1 387.5 181.1C372.6 182.0 350.9 183.0 320.0 184.1C250.8 186.5 238.0 187.0 234.0 187.5C231.5 187.7 221.3 188.2 211.2 188.4C201.2 188.7 193.0 189.3 193.0 189.7C192.9 190.9 200.4 191.8 210.0 191.9C214.7 191.9 224.8 192.4 232.5 193.0C240.2 193.5 253.9 194.4 263.0 195.0C272.1 195.6 286.0 196.5 294.0 197.0C302.0 197.5 323.1 198.9 341.0 200.0C358.9 201.1 379.4 202.4 386.5 202.9C407.3 204.2 406.6 204.2 409.5 201.8ZM508.8 194.3C501.2 194.1 488.8 194.1 481.2 194.3C473.7 194.4 479.9 194.6 495.0 194.6C510.1 194.6 516.3 194.4 508.8 194.3ZM519.7 181.2C521.7 179.5 522.9 175.4 528.1 151.8C529.2 146.7 530.5 140.7 531.0 138.5C531.5 136.3 532.9 130.0 534.0 124.5C535.1 119.0 536.5 112.7 537.0 110.5C537.5 108.3 538.4 104.0 539.0 101.0C539.7 98.0 540.5 93.9 541.0 92.0C544.8 75.8 546.3 65.1 545.1 63.6C543.9 62.2 540.4 62.0 520.4 62.0C505.5 62.0 496.2 62.4 494.7 63.1C491.8 64.4 490.0 67.9 490.0 71.9C490.0 73.4 489.6 76.0 489.1 77.6C488.6 79.2 487.2 85.5 486.0 91.5C484.8 97.5 482.9 106.8 481.9 112.0C480.8 117.2 479.5 124.0 478.9 127.0C478.3 130.0 477.4 134.3 477.0 136.5C476.5 138.7 475.2 145.0 474.0 150.5C472.8 156.0 471.4 162.1 470.9 164.1C470.4 166.1 470.0 168.8 470.0 170.0C470.0 171.3 469.4 173.9 468.8 175.8C467.6 178.9 467.7 179.3 469.9 181.1C472.0 182.8 474.1 183.0 495.0 183.0C515.2 183.0 517.9 182.8 519.7 181.2ZM383.5 156.4C384.9 154.9 386.0 153.2 386.0 152.5C386.0 150.1 381.0 141.1 378.5 139.2C375.4 136.7 374.1 136.8 303.5 140.0C231.5 143.3 212.9 144.0 201.8 144.0C195.8 144.0 191.0 144.4 191.0 144.8C191.0 145.9 214.8 147.9 277.0 152.0C284.4 152.5 293.2 153.1 296.5 153.3C299.8 153.6 309.7 154.3 318.5 154.9C327.3 155.6 342.1 156.7 351.5 157.4C378.6 159.5 380.7 159.5 383.5 156.4ZM645.7 71.8C645.5 70.5 645.3 71.5 645.3 74.0C645.3 76.5 645.5 77.5 645.7 76.2C645.9 75.0 645.9 73.0 645.7 71.8Z"/></svg>